<svg width="48" height="48" viewBox="0 0 48 48" fill="none" xmlns="http://www.w3.org/2000/svg">
<rect width="48" height="48" rx="24" fill="#B0C7DF"/>
<path d="M23.1387 17.6504V25.9648C23.1387 26.8613 22.9482 27.6641 22.5674 28.373C22.1924 29.082 21.624 29.6445 20.8623 30.0605C20.1006 30.4707 19.1426 30.6758 17.9883 30.6758C16.3418 30.6758 15.0879 30.2451 14.2266 29.3838C13.3711 28.5166 12.9434 27.3652 12.9434 25.9297V17.6504H15.0527V25.7451C15.0527 26.8174 15.3047 27.6084 15.8086 28.1182C16.3125 28.6279 17.0654 28.8828 18.0674 28.8828C18.7588 28.8828 19.3213 28.7627 19.7549 28.5225C20.1943 28.2764 20.5166 27.9189 20.7217 27.4502C20.9326 26.9756 21.0381 26.4043 21.0381 25.7363V17.6504H23.1387ZM34.3887 30.5L33.1318 26.9316H28.2188L26.9619 30.5H24.7383L29.5195 17.5977H31.8574L36.6299 30.5H34.3887ZM32.5869 25.1211L31.3652 21.6055C31.3184 21.4531 31.251 21.2393 31.1631 20.9639C31.0752 20.6826 30.9873 20.3984 30.8994 20.1113C30.8115 19.8184 30.7383 19.5723 30.6797 19.373C30.6211 19.6133 30.5479 19.8828 30.46 20.1816C30.3779 20.4746 30.2959 20.75 30.2139 21.0078C30.1377 21.2656 30.0791 21.4648 30.0381 21.6055L28.8076 25.1211H32.5869Z" fill="#004A98"/>
</svg>
