<svg width="388" height="308" viewBox="0 0 388 308" fill="none" xmlns="http://www.w3.org/2000/svg">
<g filter="url(#filter0_d_132_5535)">
<rect x="29" y="22" width="330" height="250" rx="10" fill="#FDFDFE" shape-rendering="crispEdges"/>
<rect x="29.5" y="22.5" width="329" height="249" rx="9.5" stroke="#D4D4D4" stroke-linecap="round" shape-rendering="crispEdges"/>
<path d="M68.3047 77H65.2773V65.2422H61.4004V62.7227H72.1816V65.2422H68.3047V77ZM78.6465 65.877C79.6556 65.877 80.5247 66.0723 81.2539 66.4629C81.9831 66.847 82.5462 67.4069 82.9434 68.1426C83.3405 68.8783 83.5391 69.7767 83.5391 70.8379V72.2832H76.498C76.5306 73.123 76.7812 73.7839 77.25 74.2656C77.7253 74.7409 78.3828 74.9785 79.2227 74.9785C79.9193 74.9785 80.5573 74.9069 81.1367 74.7637C81.7161 74.6204 82.3118 74.4056 82.9238 74.1191V76.4238C82.3835 76.6908 81.8171 76.8861 81.2246 77.0098C80.6387 77.1335 79.9258 77.1953 79.0859 77.1953C77.9922 77.1953 77.0221 76.9935 76.1758 76.5898C75.3359 76.1862 74.6751 75.571 74.1934 74.7441C73.7181 73.9173 73.4805 72.8757 73.4805 71.6191C73.4805 70.3431 73.6953 69.2819 74.125 68.4355C74.5612 67.5827 75.1667 66.9447 75.9414 66.5215C76.7161 66.0918 77.6178 65.877 78.6465 65.877ZM78.666 67.9961C78.0866 67.9961 77.6048 68.1816 77.2207 68.5527C76.8431 68.9238 76.625 69.5065 76.5664 70.3008H80.7461C80.7396 69.8581 80.6582 69.4642 80.502 69.1191C80.3522 68.7741 80.1243 68.5007 79.8184 68.2988C79.5189 68.097 79.1348 67.9961 78.666 67.9961ZM88.1973 71.4238L84.6816 66.082H88.0605L90.1797 69.5586L92.3184 66.082H95.6973L92.1426 71.4238L95.8633 77H92.4746L90.1797 73.2598L87.875 77H84.4961L88.1973 71.4238ZM102.123 74.8223C102.449 74.8223 102.764 74.7897 103.07 74.7246C103.383 74.6595 103.692 74.5781 103.998 74.4805V76.6973C103.679 76.8405 103.282 76.9577 102.807 77.0488C102.338 77.1465 101.824 77.1953 101.264 77.1953C100.613 77.1953 100.027 77.0911 99.5059 76.8828C98.9915 76.668 98.5846 76.3001 98.2852 75.7793C97.9922 75.252 97.8457 74.5195 97.8457 73.582V68.3184H96.4199V67.0586L98.0605 66.0625L98.9199 63.7578H100.824V66.082H103.881V68.3184H100.824V73.582C100.824 73.9987 100.941 74.3112 101.176 74.5195C101.417 74.7214 101.732 74.8223 102.123 74.8223ZM123.344 77H120.326V70.8379H114.672V77H111.645V62.7227H114.672V68.3184H120.326V62.7227H123.344V77ZM131.225 65.877C132.234 65.877 133.103 66.0723 133.832 66.4629C134.561 66.847 135.124 67.4069 135.521 68.1426C135.919 68.8783 136.117 69.7767 136.117 70.8379V72.2832H129.076C129.109 73.123 129.359 73.7839 129.828 74.2656C130.303 74.7409 130.961 74.9785 131.801 74.9785C132.497 74.9785 133.135 74.9069 133.715 74.7637C134.294 74.6204 134.89 74.4056 135.502 74.1191V76.4238C134.962 76.6908 134.395 76.8861 133.803 77.0098C133.217 77.1335 132.504 77.1953 131.664 77.1953C130.57 77.1953 129.6 76.9935 128.754 76.5898C127.914 76.1862 127.253 75.571 126.771 74.7441C126.296 73.9173 126.059 72.8757 126.059 71.6191C126.059 70.3431 126.273 69.2819 126.703 68.4355C127.139 67.5827 127.745 66.9447 128.52 66.5215C129.294 66.0918 130.196 65.877 131.225 65.877ZM131.244 67.9961C130.665 67.9961 130.183 68.1816 129.799 68.5527C129.421 68.9238 129.203 69.5065 129.145 70.3008H133.324C133.318 69.8581 133.236 69.4642 133.08 69.1191C132.93 68.7741 132.702 68.5007 132.396 68.2988C132.097 68.097 131.713 67.9961 131.244 67.9961ZM143.012 65.8574C144.477 65.8574 145.6 66.1764 146.381 66.8145C147.162 67.4525 147.553 68.4225 147.553 69.7246V77H145.473L144.896 75.5156H144.818C144.506 75.9062 144.187 76.2253 143.861 76.4727C143.536 76.7201 143.161 76.9023 142.738 77.0195C142.315 77.1367 141.801 77.1953 141.195 77.1953C140.551 77.1953 139.971 77.0716 139.457 76.8242C138.949 76.5768 138.549 76.1992 138.256 75.6914C137.963 75.1771 137.816 74.526 137.816 73.7383C137.816 72.5794 138.223 71.7266 139.037 71.1797C139.851 70.6263 141.072 70.3203 142.699 70.2617L144.594 70.2031V69.7246C144.594 69.1517 144.444 68.7318 144.145 68.4648C143.845 68.1979 143.428 68.0645 142.895 68.0645C142.367 68.0645 141.85 68.1393 141.342 68.2891C140.834 68.4388 140.326 68.6276 139.818 68.8555L138.832 66.8438C139.411 66.5378 140.059 66.2969 140.775 66.1211C141.498 65.9453 142.243 65.8574 143.012 65.8574ZM144.594 71.9414L143.441 71.9805C142.478 72.0065 141.807 72.179 141.43 72.498C141.059 72.8171 140.873 73.237 140.873 73.7578C140.873 74.2135 141.007 74.5391 141.273 74.7344C141.54 74.9232 141.889 75.0176 142.318 75.0176C142.956 75.0176 143.493 74.8288 143.93 74.4512C144.372 74.0736 144.594 73.5365 144.594 72.8398V71.9414ZM154.086 77.1953C152.868 77.1953 151.876 76.7201 151.107 75.7695C150.346 74.8125 149.965 73.4095 149.965 71.5605C149.965 69.6921 150.352 68.2793 151.127 67.3223C151.902 66.3587 152.914 65.877 154.164 65.877C154.685 65.877 155.144 65.9486 155.541 66.0918C155.938 66.235 156.28 66.4271 156.566 66.668C156.859 66.9089 157.107 67.179 157.309 67.4785H157.406C157.367 67.2702 157.318 66.9642 157.26 66.5605C157.208 66.1504 157.182 65.7305 157.182 65.3008V61.8047H160.17V77H157.885L157.309 75.584H157.182C156.993 75.8835 156.755 76.1569 156.469 76.4043C156.189 76.6452 155.854 76.8372 155.463 76.9805C155.072 77.1237 154.613 77.1953 154.086 77.1953ZM155.131 74.8223C155.945 74.8223 156.518 74.5814 156.85 74.0996C157.188 73.6113 157.367 72.8789 157.387 71.9023V71.5801C157.387 70.5189 157.224 69.7083 156.898 69.1484C156.573 68.582 155.967 68.2988 155.082 68.2988C154.424 68.2988 153.91 68.582 153.539 69.1484C153.168 69.7148 152.982 70.5319 152.982 71.5996C152.982 72.6673 153.168 73.4714 153.539 74.0117C153.917 74.5521 154.447 74.8223 155.131 74.8223ZM166.264 66.082V77H163.285V66.082H166.264ZM164.779 61.8047C165.222 61.8047 165.603 61.9089 165.922 62.1172C166.241 62.319 166.4 62.6999 166.4 63.2598C166.4 63.8132 166.241 64.1973 165.922 64.4121C165.603 64.6204 165.222 64.7246 164.779 64.7246C164.33 64.7246 163.946 64.6204 163.627 64.4121C163.314 64.1973 163.158 63.8132 163.158 63.2598C163.158 62.6999 163.314 62.319 163.627 62.1172C163.946 61.9089 164.33 61.8047 164.779 61.8047ZM175.6 65.877C176.765 65.877 177.702 66.196 178.412 66.834C179.122 67.4655 179.477 68.4811 179.477 69.8809V77H176.498V70.623C176.498 69.8418 176.355 69.2526 176.068 68.8555C175.788 68.4583 175.346 68.2598 174.74 68.2598C173.829 68.2598 173.207 68.569 172.875 69.1875C172.543 69.806 172.377 70.6979 172.377 71.8633V77H169.398V66.082H171.674L172.074 67.4785H172.24C172.475 67.1009 172.764 66.7949 173.109 66.5605C173.461 66.3262 173.848 66.1536 174.271 66.043C174.701 65.9323 175.144 65.877 175.6 65.877ZM185.736 81.8047C184.213 81.8047 183.048 81.5378 182.24 81.0039C181.439 80.4766 181.039 79.7344 181.039 78.7773C181.039 78.1198 181.244 77.5697 181.654 77.127C182.064 76.6842 182.667 76.3685 183.461 76.1797C183.155 76.0495 182.888 75.8379 182.66 75.5449C182.432 75.2454 182.318 74.9297 182.318 74.5977C182.318 74.181 182.439 73.8359 182.68 73.5625C182.921 73.2826 183.269 73.0091 183.725 72.7422C183.152 72.4948 182.696 72.0977 182.357 71.5508C182.025 71.0039 181.859 70.3594 181.859 69.6172C181.859 68.8229 182.032 68.1491 182.377 67.5957C182.729 67.0358 183.236 66.6094 183.9 66.3164C184.571 66.0234 185.385 65.877 186.342 65.877C186.544 65.877 186.778 65.89 187.045 65.916C187.312 65.9421 187.556 65.9714 187.777 66.0039C188.005 66.0365 188.158 66.0625 188.236 66.082H192.045V67.5957L190.336 68.0352C190.492 68.276 190.609 68.5332 190.688 68.8066C190.766 69.0801 190.805 69.3698 190.805 69.6758C190.805 70.8477 190.395 71.7624 189.574 72.4199C188.76 73.071 187.628 73.3965 186.176 73.3965C185.831 73.377 185.505 73.3509 185.199 73.3184C185.049 73.4355 184.936 73.5592 184.857 73.6895C184.779 73.8197 184.74 73.9564 184.74 74.0996C184.74 74.2428 184.799 74.3633 184.916 74.4609C185.04 74.5521 185.222 74.6237 185.463 74.6758C185.71 74.7214 186.016 74.7441 186.381 74.7441H188.236C189.434 74.7441 190.346 75.0013 190.971 75.5156C191.602 76.0299 191.918 76.7852 191.918 77.7812C191.918 79.0573 191.384 80.0469 190.316 80.75C189.255 81.4531 187.729 81.8047 185.736 81.8047ZM185.863 79.8613C186.573 79.8613 187.182 79.793 187.689 79.6562C188.204 79.526 188.598 79.3372 188.871 79.0898C189.145 78.849 189.281 78.5592 189.281 78.2207C189.281 77.9473 189.2 77.7292 189.037 77.5664C188.881 77.4102 188.64 77.2995 188.314 77.2344C187.995 77.1693 187.585 77.1367 187.084 77.1367H185.541C185.176 77.1367 184.848 77.1953 184.555 77.3125C184.268 77.4297 184.04 77.5924 183.871 77.8008C183.702 78.0156 183.617 78.263 183.617 78.543C183.617 78.9531 183.812 79.2754 184.203 79.5098C184.6 79.7441 185.154 79.8613 185.863 79.8613ZM186.342 71.5801C186.902 71.5801 187.312 71.4076 187.572 71.0625C187.833 70.7174 187.963 70.2487 187.963 69.6562C187.963 68.9987 187.826 68.5072 187.553 68.1816C187.286 67.8496 186.882 67.6836 186.342 67.6836C185.795 67.6836 185.385 67.8496 185.111 68.1816C184.838 68.5072 184.701 68.9987 184.701 69.6562C184.701 70.2487 184.835 70.7174 185.102 71.0625C185.375 71.4076 185.788 71.5801 186.342 71.5801ZM210.98 77H207.963V70.8379H202.309V77H199.281V62.7227H202.309V68.3184H207.963V62.7227H210.98V77ZM213.5 70.9355C213.5 70.1152 213.559 69.3047 213.676 68.5039C213.799 67.6966 214.011 66.9382 214.311 66.2285C214.61 65.5124 215.03 64.8809 215.57 64.334C216.111 63.7806 216.798 63.3477 217.631 63.0352C218.464 62.7161 219.473 62.5566 220.658 62.5566C220.938 62.5566 221.264 62.5697 221.635 62.5957C222.012 62.6152 222.325 62.651 222.572 62.7031V65.1152C222.312 65.0566 222.032 65.0111 221.732 64.9785C221.439 64.9395 221.146 64.9199 220.854 64.9199C219.669 64.9199 218.751 65.1087 218.1 65.4863C217.455 65.8639 216.999 66.388 216.732 67.0586C216.472 67.7227 216.319 68.4974 216.273 69.3828H216.4C216.583 69.0638 216.811 68.7806 217.084 68.5332C217.364 68.2858 217.702 68.0905 218.1 67.9473C218.497 67.7975 218.962 67.7227 219.496 67.7227C220.329 67.7227 221.052 67.9017 221.664 68.2598C222.276 68.6113 222.748 69.1224 223.08 69.793C223.412 70.4635 223.578 71.2806 223.578 72.2441C223.578 73.2728 223.38 74.1582 222.982 74.9004C222.585 75.6426 222.022 76.2122 221.293 76.6094C220.57 77 219.711 77.1953 218.715 77.1953C217.986 77.1953 217.305 77.0716 216.674 76.8242C216.042 76.5703 215.489 76.1862 215.014 75.6719C214.538 75.1576 214.167 74.5098 213.9 73.7285C213.633 72.9408 213.5 72.0098 213.5 70.9355ZM218.656 74.7832C219.249 74.7832 219.73 74.5814 220.102 74.1777C220.473 73.7741 220.658 73.1426 220.658 72.2832C220.658 71.5866 220.495 71.0397 220.17 70.6426C219.851 70.2389 219.366 70.0371 218.715 70.0371C218.272 70.0371 217.882 70.138 217.543 70.3398C217.211 70.5352 216.954 70.7858 216.771 71.0918C216.589 71.3913 216.498 71.7005 216.498 72.0195C216.498 72.3516 216.544 72.6803 216.635 73.0059C216.726 73.3314 216.863 73.6276 217.045 73.8945C217.227 74.1615 217.452 74.3763 217.719 74.5391C217.992 74.7018 218.305 74.7832 218.656 74.7832Z" fill="#222222"/>
<path d="M62.5625 102.578H65.7969C67.224 102.578 68.2969 102.792 69.0156 103.219C69.7344 103.646 70.0938 104.372 70.0938 105.398C70.0938 105.841 70.0078 106.24 69.8359 106.594C69.6693 106.943 69.4245 107.232 69.1016 107.461C68.7786 107.69 68.3802 107.849 67.9062 107.938V108.016C68.4062 108.094 68.849 108.237 69.2344 108.445C69.6198 108.654 69.9219 108.945 70.1406 109.32C70.3594 109.695 70.4688 110.172 70.4688 110.75C70.4688 111.453 70.3047 112.047 69.9766 112.531C69.6536 113.016 69.1953 113.383 68.6016 113.633C68.0078 113.878 67.3047 114 66.4922 114H62.5625V102.578ZM63.8906 107.477H66.0781C67.0729 107.477 67.7604 107.312 68.1406 106.984C68.526 106.656 68.7188 106.177 68.7188 105.547C68.7188 104.896 68.4896 104.427 68.0312 104.141C67.5781 103.854 66.8542 103.711 65.8594 103.711H63.8906V107.477ZM63.8906 108.594V112.867H66.2656C67.2812 112.867 68 112.669 68.4219 112.273C68.8438 111.872 69.0547 111.333 69.0547 110.656C69.0547 110.224 68.9583 109.854 68.7656 109.547C68.5781 109.24 68.2708 109.005 67.8438 108.844C67.4219 108.677 66.8568 108.594 66.1484 108.594H63.8906ZM80.0938 109.703C80.0938 110.406 80.0026 111.034 79.8203 111.586C79.638 112.138 79.375 112.604 79.0312 112.984C78.6875 113.365 78.2708 113.656 77.7812 113.859C77.2969 114.057 76.7474 114.156 76.1328 114.156C75.5599 114.156 75.0339 114.057 74.5547 113.859C74.0807 113.656 73.6693 113.365 73.3203 112.984C72.9766 112.604 72.7083 112.138 72.5156 111.586C72.3281 111.034 72.2344 110.406 72.2344 109.703C72.2344 108.766 72.3932 107.969 72.7109 107.312C73.0286 106.651 73.4818 106.148 74.0703 105.805C74.6641 105.456 75.3698 105.281 76.1875 105.281C76.9688 105.281 77.651 105.456 78.2344 105.805C78.8229 106.154 79.2786 106.659 79.6016 107.32C79.9297 107.977 80.0938 108.771 80.0938 109.703ZM73.5781 109.703C73.5781 110.391 73.6693 110.987 73.8516 111.492C74.0339 111.997 74.3151 112.388 74.6953 112.664C75.0755 112.94 75.5651 113.078 76.1641 113.078C76.7578 113.078 77.2448 112.94 77.625 112.664C78.0104 112.388 78.2943 111.997 78.4766 111.492C78.6589 110.987 78.75 110.391 78.75 109.703C78.75 109.021 78.6589 108.432 78.4766 107.938C78.2943 107.438 78.013 107.052 77.6328 106.781C77.2526 106.51 76.7604 106.375 76.1562 106.375C75.2656 106.375 74.612 106.669 74.1953 107.258C73.7839 107.846 73.5781 108.661 73.5781 109.703ZM85.3828 114.156C84.2995 114.156 83.4401 113.786 82.8047 113.047C82.1745 112.307 81.8594 111.208 81.8594 109.75C81.8594 108.276 82.1823 107.164 82.8281 106.414C83.474 105.659 84.3333 105.281 85.4062 105.281C85.8594 105.281 86.2552 105.341 86.5938 105.461C86.9323 105.581 87.224 105.742 87.4688 105.945C87.7135 106.143 87.9193 106.37 88.0859 106.625H88.1797C88.1589 106.464 88.138 106.242 88.1172 105.961C88.0964 105.68 88.0859 105.451 88.0859 105.273V101.844H89.3828V114H88.3359L88.1406 112.781H88.0859C87.9245 113.036 87.7188 113.268 87.4688 113.477C87.224 113.685 86.9297 113.852 86.5859 113.977C86.2474 114.096 85.8464 114.156 85.3828 114.156ZM85.5859 113.078C86.5026 113.078 87.151 112.818 87.5312 112.297C87.9115 111.776 88.1016 111.003 88.1016 109.977V109.742C88.1016 108.654 87.9193 107.818 87.5547 107.234C87.1953 106.651 86.5391 106.359 85.5859 106.359C84.7891 106.359 84.1927 106.667 83.7969 107.281C83.401 107.891 83.2031 108.724 83.2031 109.781C83.2031 110.833 83.3984 111.646 83.7891 112.219C84.1849 112.792 84.7839 113.078 85.5859 113.078ZM90.7812 105.438H92.1719L94.0625 110.406C94.1719 110.698 94.2734 110.979 94.3672 111.25C94.4609 111.516 94.5443 111.771 94.6172 112.016C94.6901 112.26 94.7474 112.497 94.7891 112.727H94.8438C94.9167 112.466 95.0208 112.125 95.1562 111.703C95.2917 111.276 95.4375 110.841 95.5938 110.398L97.3828 105.438H98.7812L95.0547 115.258C94.8568 115.784 94.625 116.242 94.3594 116.633C94.099 117.023 93.7812 117.323 93.4062 117.531C93.0312 117.745 92.5781 117.852 92.0469 117.852C91.8021 117.852 91.5859 117.836 91.3984 117.805C91.2109 117.779 91.0495 117.747 90.9141 117.711V116.672C91.0286 116.698 91.1667 116.721 91.3281 116.742C91.4948 116.763 91.6667 116.773 91.8438 116.773C92.1667 116.773 92.4453 116.711 92.6797 116.586C92.9193 116.466 93.125 116.289 93.2969 116.055C93.4688 115.82 93.6172 115.542 93.7422 115.219L94.2109 114.016L90.7812 105.438ZM108.008 114H106.672V103.75H103.078V102.578H111.586V103.75H108.008V114ZM116.414 105.281C117.143 105.281 117.768 105.443 118.289 105.766C118.81 106.089 119.208 106.542 119.484 107.125C119.76 107.703 119.898 108.38 119.898 109.156V109.961H113.984C114 110.966 114.25 111.732 114.734 112.258C115.219 112.784 115.901 113.047 116.781 113.047C117.323 113.047 117.802 112.997 118.219 112.898C118.635 112.799 119.068 112.654 119.516 112.461V113.602C119.083 113.794 118.654 113.935 118.227 114.023C117.805 114.112 117.305 114.156 116.727 114.156C115.904 114.156 115.185 113.99 114.57 113.656C113.961 113.318 113.487 112.823 113.148 112.172C112.81 111.521 112.641 110.724 112.641 109.781C112.641 108.859 112.794 108.062 113.102 107.391C113.414 106.714 113.852 106.193 114.414 105.828C114.982 105.464 115.648 105.281 116.414 105.281ZM116.398 106.344C115.706 106.344 115.154 106.57 114.742 107.023C114.331 107.477 114.086 108.109 114.008 108.922H118.539C118.534 108.411 118.453 107.964 118.297 107.578C118.146 107.188 117.914 106.885 117.602 106.672C117.289 106.453 116.888 106.344 116.398 106.344ZM124.141 109.617L121.18 105.438H122.664L124.922 108.734L127.172 105.438H128.641L125.68 109.617L128.805 114H127.32L124.922 110.508L122.508 114H121.039L124.141 109.617ZM133.242 113.094C133.456 113.094 133.674 113.076 133.898 113.039C134.122 113.003 134.305 112.958 134.445 112.906V113.914C134.294 113.982 134.083 114.039 133.812 114.086C133.547 114.133 133.286 114.156 133.031 114.156C132.578 114.156 132.167 114.078 131.797 113.922C131.427 113.76 131.13 113.49 130.906 113.109C130.688 112.729 130.578 112.203 130.578 111.531V106.453H129.359V105.82L130.586 105.312L131.102 103.453H131.883V105.438H134.391V106.453H131.883V111.492C131.883 112.029 132.005 112.43 132.25 112.695C132.5 112.961 132.831 113.094 133.242 113.094Z" fill="#222222"/>
<path d="M69 144.5H319C323.142 144.5 326.5 147.858 326.5 152V176C326.5 180.142 323.142 183.5 319 183.5H69C64.8579 183.5 61.5 180.142 61.5 176V152C61.5 147.858 64.8579 144.5 69 144.5Z" fill="#E6EDF5"/>
<path d="M69 144.5H319C323.142 144.5 326.5 147.858 326.5 152V176C326.5 180.142 323.142 183.5 319 183.5H69C64.8579 183.5 61.5 180.142 61.5 176V152C61.5 147.858 64.8579 144.5 69 144.5Z" stroke="#004A98"/>
<path d="M170.062 158.578H173.297C174.724 158.578 175.797 158.792 176.516 159.219C177.234 159.646 177.594 160.372 177.594 161.398C177.594 161.841 177.508 162.24 177.336 162.594C177.169 162.943 176.924 163.232 176.602 163.461C176.279 163.69 175.88 163.849 175.406 163.938V164.016C175.906 164.094 176.349 164.237 176.734 164.445C177.12 164.654 177.422 164.945 177.641 165.32C177.859 165.695 177.969 166.172 177.969 166.75C177.969 167.453 177.805 168.047 177.477 168.531C177.154 169.016 176.695 169.383 176.102 169.633C175.508 169.878 174.805 170 173.992 170H170.062V158.578ZM171.391 163.477H173.578C174.573 163.477 175.26 163.312 175.641 162.984C176.026 162.656 176.219 162.177 176.219 161.547C176.219 160.896 175.99 160.427 175.531 160.141C175.078 159.854 174.354 159.711 173.359 159.711H171.391V163.477ZM171.391 164.594V168.867H173.766C174.781 168.867 175.5 168.669 175.922 168.273C176.344 167.872 176.555 167.333 176.555 166.656C176.555 166.224 176.458 165.854 176.266 165.547C176.078 165.24 175.771 165.005 175.344 164.844C174.922 164.677 174.357 164.594 173.648 164.594H171.391ZM187.281 161.438V170H186.219L186.031 168.797H185.961C185.784 169.094 185.555 169.344 185.273 169.547C184.992 169.75 184.674 169.901 184.32 170C183.971 170.104 183.599 170.156 183.203 170.156C182.526 170.156 181.958 170.047 181.5 169.828C181.042 169.609 180.695 169.271 180.461 168.812C180.232 168.354 180.117 167.766 180.117 167.047V161.438H181.43V166.953C181.43 167.667 181.591 168.201 181.914 168.555C182.237 168.904 182.729 169.078 183.391 169.078C184.026 169.078 184.531 168.958 184.906 168.719C185.286 168.479 185.56 168.128 185.727 167.664C185.893 167.195 185.977 166.622 185.977 165.945V161.438H187.281ZM192.789 169.094C193.003 169.094 193.221 169.076 193.445 169.039C193.669 169.003 193.852 168.958 193.992 168.906V169.914C193.841 169.982 193.63 170.039 193.359 170.086C193.094 170.133 192.833 170.156 192.578 170.156C192.125 170.156 191.714 170.078 191.344 169.922C190.974 169.76 190.677 169.49 190.453 169.109C190.234 168.729 190.125 168.203 190.125 167.531V162.453H188.906V161.82L190.133 161.312L190.648 159.453H191.43V161.438H193.938V162.453H191.43V167.492C191.43 168.029 191.552 168.43 191.797 168.695C192.047 168.961 192.378 169.094 192.789 169.094ZM198.492 169.094C198.706 169.094 198.924 169.076 199.148 169.039C199.372 169.003 199.555 168.958 199.695 168.906V169.914C199.544 169.982 199.333 170.039 199.062 170.086C198.797 170.133 198.536 170.156 198.281 170.156C197.828 170.156 197.417 170.078 197.047 169.922C196.677 169.76 196.38 169.49 196.156 169.109C195.938 168.729 195.828 168.203 195.828 167.531V162.453H194.609V161.82L195.836 161.312L196.352 159.453H197.133V161.438H199.641V162.453H197.133V167.492C197.133 168.029 197.255 168.43 197.5 168.695C197.75 168.961 198.081 169.094 198.492 169.094ZM208.812 165.703C208.812 166.406 208.721 167.034 208.539 167.586C208.357 168.138 208.094 168.604 207.75 168.984C207.406 169.365 206.99 169.656 206.5 169.859C206.016 170.057 205.466 170.156 204.852 170.156C204.279 170.156 203.753 170.057 203.273 169.859C202.799 169.656 202.388 169.365 202.039 168.984C201.695 168.604 201.427 168.138 201.234 167.586C201.047 167.034 200.953 166.406 200.953 165.703C200.953 164.766 201.112 163.969 201.43 163.312C201.747 162.651 202.201 162.148 202.789 161.805C203.383 161.456 204.089 161.281 204.906 161.281C205.688 161.281 206.37 161.456 206.953 161.805C207.542 162.154 207.997 162.659 208.32 163.32C208.648 163.977 208.812 164.771 208.812 165.703ZM202.297 165.703C202.297 166.391 202.388 166.987 202.57 167.492C202.753 167.997 203.034 168.388 203.414 168.664C203.794 168.94 204.284 169.078 204.883 169.078C205.477 169.078 205.964 168.94 206.344 168.664C206.729 168.388 207.013 167.997 207.195 167.492C207.378 166.987 207.469 166.391 207.469 165.703C207.469 165.021 207.378 164.432 207.195 163.938C207.013 163.438 206.732 163.052 206.352 162.781C205.971 162.51 205.479 162.375 204.875 162.375C203.984 162.375 203.331 162.669 202.914 163.258C202.503 163.846 202.297 164.661 202.297 165.703ZM215.109 161.281C216.125 161.281 216.893 161.531 217.414 162.031C217.935 162.526 218.195 163.323 218.195 164.422V170H216.914V164.508C216.914 163.794 216.75 163.26 216.422 162.906C216.099 162.552 215.602 162.375 214.93 162.375C213.982 162.375 213.315 162.643 212.93 163.18C212.544 163.716 212.352 164.495 212.352 165.516V170H211.055V161.438H212.102L212.297 162.672H212.367C212.549 162.37 212.781 162.117 213.062 161.914C213.344 161.706 213.659 161.549 214.008 161.445C214.357 161.336 214.724 161.281 215.109 161.281Z" fill="#004A98"/>
<rect x="61" y="200" width="266" height="40" rx="8" fill="#004A98"/>
<path d="M170.062 214.578H173.297C174.724 214.578 175.797 214.792 176.516 215.219C177.234 215.646 177.594 216.372 177.594 217.398C177.594 217.841 177.508 218.24 177.336 218.594C177.169 218.943 176.924 219.232 176.602 219.461C176.279 219.69 175.88 219.849 175.406 219.938V220.016C175.906 220.094 176.349 220.237 176.734 220.445C177.12 220.654 177.422 220.945 177.641 221.32C177.859 221.695 177.969 222.172 177.969 222.75C177.969 223.453 177.805 224.047 177.477 224.531C177.154 225.016 176.695 225.383 176.102 225.633C175.508 225.878 174.805 226 173.992 226H170.062V214.578ZM171.391 219.477H173.578C174.573 219.477 175.26 219.312 175.641 218.984C176.026 218.656 176.219 218.177 176.219 217.547C176.219 216.896 175.99 216.427 175.531 216.141C175.078 215.854 174.354 215.711 173.359 215.711H171.391V219.477ZM171.391 220.594V224.867H173.766C174.781 224.867 175.5 224.669 175.922 224.273C176.344 223.872 176.555 223.333 176.555 222.656C176.555 222.224 176.458 221.854 176.266 221.547C176.078 221.24 175.771 221.005 175.344 220.844C174.922 220.677 174.357 220.594 173.648 220.594H171.391ZM187.281 217.438V226H186.219L186.031 224.797H185.961C185.784 225.094 185.555 225.344 185.273 225.547C184.992 225.75 184.674 225.901 184.32 226C183.971 226.104 183.599 226.156 183.203 226.156C182.526 226.156 181.958 226.047 181.5 225.828C181.042 225.609 180.695 225.271 180.461 224.812C180.232 224.354 180.117 223.766 180.117 223.047V217.438H181.43V222.953C181.43 223.667 181.591 224.201 181.914 224.555C182.237 224.904 182.729 225.078 183.391 225.078C184.026 225.078 184.531 224.958 184.906 224.719C185.286 224.479 185.56 224.128 185.727 223.664C185.893 223.195 185.977 222.622 185.977 221.945V217.438H187.281ZM192.789 225.094C193.003 225.094 193.221 225.076 193.445 225.039C193.669 225.003 193.852 224.958 193.992 224.906V225.914C193.841 225.982 193.63 226.039 193.359 226.086C193.094 226.133 192.833 226.156 192.578 226.156C192.125 226.156 191.714 226.078 191.344 225.922C190.974 225.76 190.677 225.49 190.453 225.109C190.234 224.729 190.125 224.203 190.125 223.531V218.453H188.906V217.82L190.133 217.312L190.648 215.453H191.43V217.438H193.938V218.453H191.43V223.492C191.43 224.029 191.552 224.43 191.797 224.695C192.047 224.961 192.378 225.094 192.789 225.094ZM198.492 225.094C198.706 225.094 198.924 225.076 199.148 225.039C199.372 225.003 199.555 224.958 199.695 224.906V225.914C199.544 225.982 199.333 226.039 199.062 226.086C198.797 226.133 198.536 226.156 198.281 226.156C197.828 226.156 197.417 226.078 197.047 225.922C196.677 225.76 196.38 225.49 196.156 225.109C195.938 224.729 195.828 224.203 195.828 223.531V218.453H194.609V217.82L195.836 217.312L196.352 215.453H197.133V217.438H199.641V218.453H197.133V223.492C197.133 224.029 197.255 224.43 197.5 224.695C197.75 224.961 198.081 225.094 198.492 225.094ZM208.812 221.703C208.812 222.406 208.721 223.034 208.539 223.586C208.357 224.138 208.094 224.604 207.75 224.984C207.406 225.365 206.99 225.656 206.5 225.859C206.016 226.057 205.466 226.156 204.852 226.156C204.279 226.156 203.753 226.057 203.273 225.859C202.799 225.656 202.388 225.365 202.039 224.984C201.695 224.604 201.427 224.138 201.234 223.586C201.047 223.034 200.953 222.406 200.953 221.703C200.953 220.766 201.112 219.969 201.43 219.312C201.747 218.651 202.201 218.148 202.789 217.805C203.383 217.456 204.089 217.281 204.906 217.281C205.688 217.281 206.37 217.456 206.953 217.805C207.542 218.154 207.997 218.659 208.32 219.32C208.648 219.977 208.812 220.771 208.812 221.703ZM202.297 221.703C202.297 222.391 202.388 222.987 202.57 223.492C202.753 223.997 203.034 224.388 203.414 224.664C203.794 224.94 204.284 225.078 204.883 225.078C205.477 225.078 205.964 224.94 206.344 224.664C206.729 224.388 207.013 223.997 207.195 223.492C207.378 222.987 207.469 222.391 207.469 221.703C207.469 221.021 207.378 220.432 207.195 219.938C207.013 219.438 206.732 219.052 206.352 218.781C205.971 218.51 205.479 218.375 204.875 218.375C203.984 218.375 203.331 218.669 202.914 219.258C202.503 219.846 202.297 220.661 202.297 221.703ZM215.109 217.281C216.125 217.281 216.893 217.531 217.414 218.031C217.935 218.526 218.195 219.323 218.195 220.422V226H216.914V220.508C216.914 219.794 216.75 219.26 216.422 218.906C216.099 218.552 215.602 218.375 214.93 218.375C213.982 218.375 213.315 218.643 212.93 219.18C212.544 219.716 212.352 220.495 212.352 221.516V226H211.055V217.438H212.102L212.297 218.672H212.367C212.549 218.37 212.781 218.117 213.062 217.914C213.344 217.706 213.659 217.549 214.008 217.445C214.357 217.336 214.724 217.281 215.109 217.281Z" fill="#F8F8F8"/>
<rect x="315" y="30" width="36" height="36" rx="18" fill="#FDFDFE"/>
<path d="M338 43L328 53M328 43L338 53" stroke="#222222" stroke-width="1.6" stroke-linecap="round" stroke-linejoin="round"/>
</g>
<defs>
<filter id="filter0_d_132_5535" x="0" y="0" width="388" height="308" filterUnits="userSpaceOnUse" color-interpolation-filters="sRGB">
<feFlood flood-opacity="0" result="BackgroundImageFix"/>
<feColorMatrix in="SourceAlpha" type="matrix" values="0 0 0 0 0 0 0 0 0 0 0 0 0 0 0 0 0 0 127 0" result="hardAlpha"/>
<feOffset dy="7"/>
<feGaussianBlur stdDeviation="14.5"/>
<feComposite in2="hardAlpha" operator="out"/>
<feColorMatrix type="matrix" values="0 0 0 0 0.392157 0 0 0 0 0.392157 0 0 0 0 0.435294 0 0 0 0.2 0"/>
<feBlend mode="normal" in2="BackgroundImageFix" result="effect1_dropShadow_132_5535"/>
<feBlend mode="normal" in="SourceGraphic" in2="effect1_dropShadow_132_5535" result="shape"/>
</filter>
</defs>
</svg>
