<svg width="543" height="180" viewBox="0 0 543 180" fill="none" xmlns="http://www.w3.org/2000/svg">
<rect width="543" height="180" rx="10" fill="#EDEDED"/>
<path d="M232 77.639C232 76.2524 232 75.559 232.058 74.975C232.616 69.3426 237.072 64.8868 242.704 64.3287C243.288 64.2709 244.019 64.2709 245.48 64.2709C246.044 64.2709 246.325 64.2709 246.564 64.2564C249.617 64.0715 252.29 62.1448 253.431 59.3071C253.52 59.0849 253.604 58.8344 253.771 58.3334C253.938 57.8324 254.021 57.5818 254.111 57.3596C255.251 54.522 257.925 52.5953 260.977 52.4104C261.216 52.3959 261.481 52.3959 262.009 52.3959H281.158C281.686 52.3959 281.95 52.3959 282.189 52.4104C285.242 52.5953 287.915 54.522 289.056 57.3596C289.145 57.5818 289.229 57.8324 289.396 58.3334C289.563 58.8344 289.646 59.0849 289.736 59.3071C290.876 62.1448 293.55 64.0715 296.602 64.2564C296.841 64.2709 297.123 64.2709 297.686 64.2709C299.148 64.2709 299.879 64.2709 300.463 64.3287C306.095 64.8868 310.551 69.3426 311.109 74.975C311.167 75.559 311.167 76.2524 311.167 77.639V108.604C311.167 115.255 311.167 118.58 309.872 121.12C308.734 123.355 306.917 125.171 304.683 126.31C302.142 127.604 298.817 127.604 292.167 127.604H251C244.349 127.604 241.024 127.604 238.484 126.31C236.249 125.171 234.433 123.355 233.294 121.12C232 118.58 232 115.255 232 108.604V77.639Z" stroke="#D4D4D4" stroke-width="6" stroke-linecap="round" stroke-linejoin="round"/>
<path d="M271.5 107.102C280.245 107.102 287.334 100.296 287.334 91.9002C287.334 83.5049 280.245 76.6989 271.5 76.6989C262.756 76.6989 255.667 83.5049 255.667 91.9002C255.667 100.296 262.756 107.102 271.5 107.102Z" stroke="#D4D4D4" stroke-width="6" stroke-linecap="round" stroke-linejoin="round"/>
</svg>
