<svg width="722" height="232" viewBox="0 0 722 232" fill="none" xmlns="http://www.w3.org/2000/svg">
<g filter="url(#filter0_d_811_381)">
<rect x="29" y="22" width="320" height="75" rx="12" fill="#E6EDF5" shape-rendering="crispEdges"/>
<rect x="30" y="23" width="318" height="73" rx="11" stroke="#004A98" stroke-width="2" shape-rendering="crispEdges"/>
<path d="M53 55.5V59.5M53 63.5H53.01M63 59.5C63 65.0228 58.5228 69.5 53 69.5C47.4771 69.5 43 65.0228 43 59.5C43 53.9771 47.4771 49.5 53 49.5C58.5228 49.5 63 53.9771 63 59.5Z" stroke="#004A98" stroke-width="1.6" stroke-linecap="round" stroke-linejoin="round"/>
<path d="M83.1436 54H81.0254V42.9434H77.2637V41.1504H86.8965V42.9434H83.1436V54ZM87.1865 44.2705H89.4365L91.4316 49.8252C91.5195 50.0771 91.5986 50.3262 91.6689 50.5723C91.7451 50.8125 91.8096 51.0498 91.8623 51.2842C91.9209 51.5186 91.9678 51.7529 92.0029 51.9873H92.0557C92.1143 51.6826 92.1963 51.3428 92.3018 50.9678C92.4131 50.5869 92.5361 50.2061 92.6709 49.8252L94.5869 44.2705H96.8105L92.6357 55.3359C92.3955 55.9688 92.0996 56.5078 91.748 56.9531C91.4023 57.4043 90.9922 57.7441 90.5176 57.9727C90.043 58.207 89.501 58.3242 88.8916 58.3242C88.5986 58.3242 88.3438 58.3066 88.127 58.2715C87.9102 58.2422 87.7256 58.21 87.5732 58.1748V56.5225C87.6963 56.5518 87.8516 56.5781 88.0391 56.6016C88.2266 56.625 88.4199 56.6367 88.6191 56.6367C88.9883 56.6367 89.3076 56.5635 89.5771 56.417C89.8467 56.2705 90.0752 56.0625 90.2627 55.793C90.4502 55.5293 90.6055 55.2275 90.7285 54.8877L91.0713 53.9736L87.1865 44.2705ZM103.279 44.0859C104.434 44.0859 105.359 44.5078 106.057 45.3516C106.76 46.1953 107.111 47.4492 107.111 49.1133C107.111 50.2148 106.947 51.1436 106.619 51.8994C106.297 52.6494 105.843 53.2178 105.257 53.6045C104.677 53.9854 104 54.1758 103.227 54.1758C102.734 54.1758 102.307 54.1113 101.943 53.9824C101.58 53.8535 101.27 53.6865 101.012 53.4814C100.754 53.2705 100.537 53.042 100.361 52.7959H100.238C100.268 53.0303 100.294 53.291 100.317 53.5781C100.347 53.8594 100.361 54.1172 100.361 54.3516V58.3154H98.2871V44.2705H99.9746L100.265 45.6152H100.361C100.543 45.3398 100.763 45.085 101.021 44.8506C101.284 44.6162 101.601 44.4316 101.97 44.2969C102.345 44.1562 102.781 44.0859 103.279 44.0859ZM102.726 45.7734C102.157 45.7734 101.7 45.8877 101.354 46.1162C101.015 46.3389 100.766 46.6758 100.607 47.127C100.455 47.5781 100.373 48.1436 100.361 48.8232V49.1133C100.361 49.834 100.435 50.4463 100.581 50.9502C100.733 51.4482 100.982 51.8291 101.328 52.0928C101.68 52.3506 102.154 52.4795 102.752 52.4795C103.256 52.4795 103.672 52.3418 104 52.0664C104.334 51.791 104.583 51.3984 104.747 50.8887C104.911 50.3789 104.993 49.7783 104.993 49.0869C104.993 48.0381 104.806 47.2236 104.431 46.6436C104.062 46.0635 103.493 45.7734 102.726 45.7734ZM113.378 44.0859C114.245 44.0859 114.989 44.2646 115.61 44.6221C116.231 44.9795 116.709 45.4863 117.043 46.1426C117.377 46.7988 117.544 47.584 117.544 48.498V49.6055H111.049C111.072 50.5488 111.324 51.2754 111.805 51.7852C112.291 52.2949 112.971 52.5498 113.844 52.5498C114.465 52.5498 115.021 52.4912 115.514 52.374C116.012 52.251 116.524 52.0723 117.052 51.8379V53.5166C116.565 53.7451 116.07 53.9121 115.566 54.0176C115.062 54.123 114.459 54.1758 113.756 54.1758C112.801 54.1758 111.96 53.9912 111.233 53.6221C110.513 53.2471 109.947 52.6904 109.537 51.9521C109.133 51.2139 108.931 50.2969 108.931 49.2012C108.931 48.1113 109.115 47.1855 109.484 46.4238C109.854 45.6621 110.372 45.082 111.04 44.6836C111.708 44.2852 112.487 44.0859 113.378 44.0859ZM113.378 45.6416C112.728 45.6416 112.2 45.8525 111.796 46.2744C111.397 46.6963 111.163 47.3145 111.093 48.1289H115.522C115.517 47.6426 115.435 47.2119 115.276 46.8369C115.124 46.4619 114.89 46.1689 114.573 45.958C114.263 45.7471 113.864 45.6416 113.378 45.6416ZM126.271 41.1504L125.92 45.791H124.593L124.25 41.1504H126.271ZM129.137 54V41.1504H131.246V54H129.137ZM139.499 44.0859C140.595 44.0859 141.447 44.3701 142.057 44.9385C142.672 45.501 142.979 46.4062 142.979 47.6543V54H140.914V48.041C140.914 47.2852 140.759 46.7197 140.448 46.3447C140.138 45.9639 139.657 45.7734 139.007 45.7734C138.063 45.7734 137.407 46.0635 137.038 46.6436C136.675 47.2236 136.493 48.0645 136.493 49.166V54H134.428V44.2705H136.036L136.326 45.5889H136.44C136.651 45.249 136.912 44.9707 137.223 44.7539C137.539 44.5312 137.891 44.3643 138.277 44.2529C138.67 44.1416 139.077 44.0859 139.499 44.0859ZM150.731 45.8438H148.367V54H146.302V45.8438H144.711V44.8506L146.302 44.2441V43.5674C146.302 42.7412 146.431 42.085 146.688 41.5986C146.952 41.1123 147.327 40.7637 147.813 40.5527C148.306 40.3359 148.892 40.2275 149.571 40.2275C150.017 40.2275 150.424 40.2656 150.793 40.3418C151.162 40.4121 151.473 40.4941 151.725 40.5879L151.188 42.1523C150.989 42.0879 150.767 42.0293 150.521 41.9766C150.274 41.918 150.011 41.8887 149.729 41.8887C149.261 41.8887 148.915 42.0352 148.692 42.3281C148.476 42.6211 148.367 43.0488 148.367 43.6113V44.2705H150.731V45.8438ZM161.006 49.1133C161.006 49.9219 160.9 50.6396 160.689 51.2666C160.479 51.8936 160.171 52.4238 159.767 52.8574C159.362 53.2852 158.876 53.6133 158.308 53.8418C157.739 54.0645 157.098 54.1758 156.383 54.1758C155.715 54.1758 155.103 54.0645 154.546 53.8418C153.989 53.6133 153.506 53.2852 153.096 52.8574C152.691 52.4238 152.378 51.8936 152.155 51.2666C151.933 50.6396 151.821 49.9219 151.821 49.1133C151.821 48.041 152.006 47.1328 152.375 46.3887C152.75 45.6387 153.283 45.0674 153.975 44.6748C154.666 44.2822 155.489 44.0859 156.444 44.0859C157.341 44.0859 158.132 44.2822 158.817 44.6748C159.503 45.0674 160.039 45.6387 160.426 46.3887C160.812 47.1387 161.006 48.0469 161.006 49.1133ZM153.948 49.1133C153.948 49.8223 154.033 50.4287 154.203 50.9326C154.379 51.4365 154.648 51.8232 155.012 52.0928C155.375 52.3564 155.844 52.4883 156.418 52.4883C156.992 52.4883 157.461 52.3564 157.824 52.0928C158.188 51.8232 158.454 51.4365 158.624 50.9326C158.794 50.4287 158.879 49.8223 158.879 49.1133C158.879 48.4043 158.794 47.8037 158.624 47.3115C158.454 46.8135 158.188 46.4355 157.824 46.1777C157.461 45.9141 156.989 45.7822 156.409 45.7822C155.554 45.7822 154.93 46.0693 154.537 46.6436C154.145 47.2178 153.948 48.041 153.948 49.1133ZM165.102 41.1504L164.75 45.791H163.423L163.08 41.1504H165.102Z" fill="#222222"/>
<path d="M87.2031 67.5781V74.9688C87.2031 75.776 87.0391 76.4948 86.7109 77.125C86.388 77.7552 85.8984 78.2526 85.2422 78.6172C84.5859 78.9766 83.763 79.1562 82.7734 79.1562C81.362 79.1562 80.2865 78.7734 79.5469 78.0078C78.8125 77.2422 78.4453 76.2188 78.4453 74.9375V67.5781H79.7812V74.9766C79.7812 75.9453 80.0365 76.6927 80.5469 77.2188C81.0625 77.7448 81.8307 78.0078 82.8516 78.0078C83.5495 78.0078 84.1198 77.8828 84.5625 77.6328C85.0104 77.3776 85.3411 77.0234 85.5547 76.5703C85.7734 76.112 85.8828 75.5833 85.8828 74.9844V67.5781H87.2031ZM90.2344 79V67.5781H91.5625V79H90.2344ZM107.789 79H106.258L100.031 69.4062H99.9688C99.9844 69.6615 100.003 69.9531 100.023 70.2812C100.044 70.6042 100.06 70.9505 100.07 71.3203C100.086 71.6849 100.094 72.0573 100.094 72.4375V79H98.8594V67.5781H100.383L106.586 77.1406H106.641C106.63 76.9583 106.617 76.7005 106.602 76.3672C106.586 76.0286 106.57 75.6667 106.555 75.2812C106.544 74.8906 106.539 74.5286 106.539 74.1953V67.5781H107.789V79ZM118.094 74.7031C118.094 75.4062 118.003 76.0339 117.82 76.5859C117.638 77.138 117.375 77.6042 117.031 77.9844C116.688 78.3646 116.271 78.6562 115.781 78.8594C115.297 79.0573 114.747 79.1562 114.133 79.1562C113.56 79.1562 113.034 79.0573 112.555 78.8594C112.081 78.6562 111.669 78.3646 111.32 77.9844C110.977 77.6042 110.708 77.138 110.516 76.5859C110.328 76.0339 110.234 75.4062 110.234 74.7031C110.234 73.7656 110.393 72.9688 110.711 72.3125C111.029 71.651 111.482 71.1484 112.07 70.8047C112.664 70.4557 113.37 70.2812 114.188 70.2812C114.969 70.2812 115.651 70.4557 116.234 70.8047C116.823 71.1536 117.279 71.6589 117.602 72.3203C117.93 72.9766 118.094 73.7708 118.094 74.7031ZM111.578 74.7031C111.578 75.3906 111.669 75.987 111.852 76.4922C112.034 76.9974 112.315 77.388 112.695 77.6641C113.076 77.9401 113.565 78.0781 114.164 78.0781C114.758 78.0781 115.245 77.9401 115.625 77.6641C116.01 77.388 116.294 76.9974 116.477 76.4922C116.659 75.987 116.75 75.3906 116.75 74.7031C116.75 74.0208 116.659 73.4323 116.477 72.9375C116.294 72.4375 116.013 72.0521 115.633 71.7812C115.253 71.5104 114.76 71.375 114.156 71.375C113.266 71.375 112.612 71.6693 112.195 72.2578C111.784 72.8464 111.578 73.6615 111.578 74.7031ZM123.102 78.0938C123.315 78.0938 123.534 78.0755 123.758 78.0391C123.982 78.0026 124.164 77.9583 124.305 77.9062V78.9141C124.154 78.9818 123.943 79.0391 123.672 79.0859C123.406 79.1328 123.146 79.1562 122.891 79.1562C122.438 79.1562 122.026 79.0781 121.656 78.9219C121.286 78.7604 120.99 78.4896 120.766 78.1094C120.547 77.7292 120.438 77.2031 120.438 76.5312V71.4531H119.219V70.8203L120.445 70.3125L120.961 68.4531H121.742V70.4375H124.25V71.4531H121.742V76.4922C121.742 77.0286 121.865 77.4297 122.109 77.6953C122.359 77.9609 122.69 78.0938 123.102 78.0938ZM127.336 70.4375V79H126.039V70.4375H127.336ZM126.703 67.2344C126.917 67.2344 127.099 67.3047 127.25 67.4453C127.406 67.5807 127.484 67.7943 127.484 68.0859C127.484 68.3724 127.406 68.5859 127.25 68.7266C127.099 68.8672 126.917 68.9375 126.703 68.9375C126.479 68.9375 126.292 68.8672 126.141 68.7266C125.995 68.5859 125.922 68.3724 125.922 68.0859C125.922 67.7943 125.995 67.5807 126.141 67.4453C126.292 67.3047 126.479 67.2344 126.703 67.2344ZM133.898 71.4531H131.766V79H130.469V71.4531H128.953V70.8281L130.469 70.3984V69.8281C130.469 69.1094 130.576 68.526 130.789 68.0781C131.003 67.625 131.312 67.2917 131.719 67.0781C132.125 66.8646 132.62 66.7578 133.203 66.7578C133.531 66.7578 133.831 66.7865 134.102 66.8438C134.378 66.901 134.62 66.9661 134.828 67.0391L134.492 68.0625C134.315 68.0052 134.115 67.9531 133.891 67.9062C133.672 67.8542 133.448 67.8281 133.219 67.8281C132.724 67.8281 132.357 67.9896 132.117 68.3125C131.883 68.6302 131.766 69.1302 131.766 69.8125V70.4375H133.898V71.4531ZM136.766 70.4375V79H135.469V70.4375H136.766ZM136.133 67.2344C136.346 67.2344 136.529 67.3047 136.68 67.4453C136.836 67.5807 136.914 67.7943 136.914 68.0859C136.914 68.3724 136.836 68.5859 136.68 68.7266C136.529 68.8672 136.346 68.9375 136.133 68.9375C135.909 68.9375 135.721 68.8672 135.57 68.7266C135.424 68.5859 135.352 68.3724 135.352 68.0859C135.352 67.7943 135.424 67.5807 135.57 67.4453C135.721 67.3047 135.909 67.2344 136.133 67.2344ZM142.938 79.1562C142.167 79.1562 141.487 78.9974 140.898 78.6797C140.31 78.362 139.852 77.8776 139.523 77.2266C139.195 76.5755 139.031 75.7552 139.031 74.7656C139.031 73.7292 139.203 72.8828 139.547 72.2266C139.896 71.5651 140.375 71.0755 140.984 70.7578C141.594 70.4401 142.286 70.2812 143.062 70.2812C143.49 70.2812 143.901 70.3255 144.297 70.4141C144.698 70.4974 145.026 70.6042 145.281 70.7344L144.891 71.8203C144.63 71.7161 144.328 71.6224 143.984 71.5391C143.646 71.4557 143.328 71.4141 143.031 71.4141C142.438 71.4141 141.943 71.5417 141.547 71.7969C141.156 72.0521 140.862 72.4271 140.664 72.9219C140.471 73.4167 140.375 74.026 140.375 74.75C140.375 75.4427 140.469 76.0339 140.656 76.5234C140.849 77.013 141.133 77.388 141.508 77.6484C141.888 77.9036 142.362 78.0312 142.93 78.0312C143.383 78.0312 143.792 77.9844 144.156 77.8906C144.521 77.7917 144.852 77.6771 145.148 77.5469V78.7031C144.862 78.849 144.542 78.9609 144.188 79.0391C143.839 79.1172 143.422 79.1562 142.938 79.1562ZM150.383 70.2969C151.404 70.2969 152.161 70.526 152.656 70.9844C153.151 71.4427 153.398 72.1745 153.398 73.1797V79H152.453L152.203 77.7344H152.141C151.901 78.0469 151.651 78.3099 151.391 78.5234C151.13 78.7318 150.828 78.8906 150.484 79C150.146 79.1042 149.729 79.1562 149.234 79.1562C148.714 79.1562 148.25 79.0651 147.844 78.8828C147.443 78.7005 147.125 78.4245 146.891 78.0547C146.661 77.6849 146.547 77.2161 146.547 76.6484C146.547 75.7943 146.885 75.138 147.562 74.6797C148.24 74.2214 149.271 73.9714 150.656 73.9297L152.133 73.8672V73.3438C152.133 72.6042 151.974 72.0859 151.656 71.7891C151.339 71.4922 150.891 71.3438 150.312 71.3438C149.865 71.3438 149.438 71.4089 149.031 71.5391C148.625 71.6693 148.24 71.8229 147.875 72L147.477 71.0156C147.862 70.8177 148.305 70.6484 148.805 70.5078C149.305 70.3672 149.831 70.2969 150.383 70.2969ZM152.117 74.7812L150.812 74.8359C149.745 74.8776 148.992 75.0521 148.555 75.3594C148.117 75.6667 147.898 76.1016 147.898 76.6641C147.898 77.1536 148.047 77.5156 148.344 77.75C148.641 77.9844 149.034 78.1016 149.523 78.1016C150.284 78.1016 150.906 77.8906 151.391 77.4688C151.875 77.0469 152.117 76.4141 152.117 75.5703V74.7812ZM158.836 78.0938C159.049 78.0938 159.268 78.0755 159.492 78.0391C159.716 78.0026 159.898 77.9583 160.039 77.9062V78.9141C159.888 78.9818 159.677 79.0391 159.406 79.0859C159.141 79.1328 158.88 79.1562 158.625 79.1562C158.172 79.1562 157.76 79.0781 157.391 78.9219C157.021 78.7604 156.724 78.4896 156.5 78.1094C156.281 77.7292 156.172 77.2031 156.172 76.5312V71.4531H154.953V70.8203L156.18 70.3125L156.695 68.4531H157.477V70.4375H159.984V71.4531H157.477V76.4922C157.477 77.0286 157.599 77.4297 157.844 77.6953C158.094 77.9609 158.424 78.0938 158.836 78.0938ZM163.07 70.4375V79H161.773V70.4375H163.07ZM162.438 67.2344C162.651 67.2344 162.833 67.3047 162.984 67.4453C163.141 67.5807 163.219 67.7943 163.219 68.0859C163.219 68.3724 163.141 68.5859 162.984 68.7266C162.833 68.8672 162.651 68.9375 162.438 68.9375C162.214 68.9375 162.026 68.8672 161.875 68.7266C161.729 68.5859 161.656 68.3724 161.656 68.0859C161.656 67.7943 161.729 67.5807 161.875 67.4453C162.026 67.3047 162.214 67.2344 162.438 67.2344ZM173.203 74.7031C173.203 75.4062 173.112 76.0339 172.93 76.5859C172.747 77.138 172.484 77.6042 172.141 77.9844C171.797 78.3646 171.38 78.6562 170.891 78.8594C170.406 79.0573 169.857 79.1562 169.242 79.1562C168.669 79.1562 168.143 79.0573 167.664 78.8594C167.19 78.6562 166.779 78.3646 166.43 77.9844C166.086 77.6042 165.818 77.138 165.625 76.5859C165.438 76.0339 165.344 75.4062 165.344 74.7031C165.344 73.7656 165.503 72.9688 165.82 72.3125C166.138 71.651 166.591 71.1484 167.18 70.8047C167.773 70.4557 168.479 70.2812 169.297 70.2812C170.078 70.2812 170.76 70.4557 171.344 70.8047C171.932 71.1536 172.388 71.6589 172.711 72.3203C173.039 72.9766 173.203 73.7708 173.203 74.7031ZM166.688 74.7031C166.688 75.3906 166.779 75.987 166.961 76.4922C167.143 76.9974 167.424 77.388 167.805 77.6641C168.185 77.9401 168.674 78.0781 169.273 78.0781C169.867 78.0781 170.354 77.9401 170.734 77.6641C171.12 77.388 171.404 76.9974 171.586 76.4922C171.768 75.987 171.859 75.3906 171.859 74.7031C171.859 74.0208 171.768 73.4323 171.586 72.9375C171.404 72.4375 171.122 72.0521 170.742 71.7812C170.362 71.5104 169.87 71.375 169.266 71.375C168.375 71.375 167.721 71.6693 167.305 72.2578C166.893 72.8464 166.688 73.6615 166.688 74.7031ZM179.5 70.2812C180.516 70.2812 181.284 70.5312 181.805 71.0312C182.326 71.526 182.586 72.3229 182.586 73.4219V79H181.305V73.5078C181.305 72.7943 181.141 72.2604 180.812 71.9062C180.49 71.5521 179.992 71.375 179.32 71.375C178.372 71.375 177.706 71.6432 177.32 72.1797C176.935 72.7161 176.742 73.4948 176.742 74.5156V79H175.445V70.4375H176.492L176.688 71.6719H176.758C176.94 71.3698 177.172 71.1172 177.453 70.9141C177.734 70.7057 178.049 70.5495 178.398 70.4453C178.747 70.3359 179.115 70.2812 179.5 70.2812Z" fill="#222222"/>
<path d="M332 54.5L322 64.5M322 54.5L332 64.5" stroke="#222222" stroke-width="1.6" stroke-linecap="round" stroke-linejoin="round"/>
</g>
<g filter="url(#filter1_d_811_381)">
<rect x="29" y="121" width="320" height="75" rx="12" fill="#FFEBB4" shape-rendering="crispEdges"/>
<rect x="30" y="122" width="318" height="73" rx="11" stroke="#B58709" stroke-width="2" shape-rendering="crispEdges"/>
<path d="M52.9998 155.5V159.5M52.9998 163.5H53.0098M51.6151 150.392L43.3902 164.598C42.934 165.386 42.7059 165.78 42.7396 166.104C42.769 166.386 42.9168 166.642 43.1461 166.809C43.4091 167 43.8644 167 44.7749 167H61.2246C62.1352 167 62.5904 167 62.8534 166.809C63.0827 166.642 63.2305 166.386 63.2599 166.104C63.2936 165.78 63.0655 165.386 62.6093 164.598L54.3844 150.392C53.9299 149.607 53.7026 149.214 53.4061 149.082C53.1474 148.967 52.8521 148.967 52.5935 149.082C52.2969 149.214 52.0696 149.607 51.6151 150.392Z" stroke="#B58709" stroke-width="1.6" stroke-linecap="round" stroke-linejoin="round"/>
<path d="M83.1436 153H81.0254V141.943H77.2637V140.15H86.8965V141.943H83.1436V153ZM87.1865 143.271H89.4365L91.4316 148.825C91.5195 149.077 91.5986 149.326 91.6689 149.572C91.7451 149.812 91.8096 150.05 91.8623 150.284C91.9209 150.519 91.9678 150.753 92.0029 150.987H92.0557C92.1143 150.683 92.1963 150.343 92.3018 149.968C92.4131 149.587 92.5361 149.206 92.6709 148.825L94.5869 143.271H96.8105L92.6357 154.336C92.3955 154.969 92.0996 155.508 91.748 155.953C91.4023 156.404 90.9922 156.744 90.5176 156.973C90.043 157.207 89.501 157.324 88.8916 157.324C88.5986 157.324 88.3438 157.307 88.127 157.271C87.9102 157.242 87.7256 157.21 87.5732 157.175V155.522C87.6963 155.552 87.8516 155.578 88.0391 155.602C88.2266 155.625 88.4199 155.637 88.6191 155.637C88.9883 155.637 89.3076 155.563 89.5771 155.417C89.8467 155.271 90.0752 155.062 90.2627 154.793C90.4502 154.529 90.6055 154.228 90.7285 153.888L91.0713 152.974L87.1865 143.271ZM103.279 143.086C104.434 143.086 105.359 143.508 106.057 144.352C106.76 145.195 107.111 146.449 107.111 148.113C107.111 149.215 106.947 150.144 106.619 150.899C106.297 151.649 105.843 152.218 105.257 152.604C104.677 152.985 104 153.176 103.227 153.176C102.734 153.176 102.307 153.111 101.943 152.982C101.58 152.854 101.27 152.687 101.012 152.481C100.754 152.271 100.537 152.042 100.361 151.796H100.238C100.268 152.03 100.294 152.291 100.317 152.578C100.347 152.859 100.361 153.117 100.361 153.352V157.315H98.2871V143.271H99.9746L100.265 144.615H100.361C100.543 144.34 100.763 144.085 101.021 143.851C101.284 143.616 101.601 143.432 101.97 143.297C102.345 143.156 102.781 143.086 103.279 143.086ZM102.726 144.773C102.157 144.773 101.7 144.888 101.354 145.116C101.015 145.339 100.766 145.676 100.607 146.127C100.455 146.578 100.373 147.144 100.361 147.823V148.113C100.361 148.834 100.435 149.446 100.581 149.95C100.733 150.448 100.982 150.829 101.328 151.093C101.68 151.351 102.154 151.479 102.752 151.479C103.256 151.479 103.672 151.342 104 151.066C104.334 150.791 104.583 150.398 104.747 149.889C104.911 149.379 104.993 148.778 104.993 148.087C104.993 147.038 104.806 146.224 104.431 145.644C104.062 145.063 103.493 144.773 102.726 144.773ZM113.378 143.086C114.245 143.086 114.989 143.265 115.61 143.622C116.231 143.979 116.709 144.486 117.043 145.143C117.377 145.799 117.544 146.584 117.544 147.498V148.605H111.049C111.072 149.549 111.324 150.275 111.805 150.785C112.291 151.295 112.971 151.55 113.844 151.55C114.465 151.55 115.021 151.491 115.514 151.374C116.012 151.251 116.524 151.072 117.052 150.838V152.517C116.565 152.745 116.07 152.912 115.566 153.018C115.062 153.123 114.459 153.176 113.756 153.176C112.801 153.176 111.96 152.991 111.233 152.622C110.513 152.247 109.947 151.69 109.537 150.952C109.133 150.214 108.931 149.297 108.931 148.201C108.931 147.111 109.115 146.186 109.484 145.424C109.854 144.662 110.372 144.082 111.04 143.684C111.708 143.285 112.487 143.086 113.378 143.086ZM113.378 144.642C112.728 144.642 112.2 144.853 111.796 145.274C111.397 145.696 111.163 146.314 111.093 147.129H115.522C115.517 146.643 115.435 146.212 115.276 145.837C115.124 145.462 114.89 145.169 114.573 144.958C114.263 144.747 113.864 144.642 113.378 144.642ZM126.271 140.15L125.92 144.791H124.593L124.25 140.15H126.271ZM144.333 140.15L140.976 153H138.673L136.528 145.301C136.476 145.113 136.417 144.891 136.353 144.633C136.288 144.375 136.224 144.111 136.159 143.842C136.101 143.572 136.048 143.326 136.001 143.104C135.96 142.875 135.931 142.699 135.913 142.576C135.901 142.699 135.875 142.872 135.834 143.095C135.793 143.317 135.743 143.563 135.685 143.833C135.632 144.097 135.573 144.36 135.509 144.624C135.444 144.882 135.386 145.11 135.333 145.31L133.224 153H130.93L127.581 140.15H129.699L131.554 147.683C131.612 147.923 131.671 148.184 131.729 148.465C131.794 148.74 131.853 149.019 131.905 149.3C131.964 149.581 132.017 149.856 132.063 150.126C132.11 150.39 132.148 150.63 132.178 150.847C132.207 150.624 132.245 150.378 132.292 150.108C132.339 149.833 132.389 149.555 132.441 149.273C132.5 148.986 132.559 148.711 132.617 148.447C132.682 148.184 132.746 147.946 132.811 147.735L134.902 140.15H136.959L139.095 147.762C139.159 147.979 139.221 148.222 139.279 148.491C139.344 148.761 139.405 149.036 139.464 149.317C139.522 149.599 139.575 149.871 139.622 150.135C139.669 150.398 139.707 150.636 139.736 150.847C139.777 150.56 139.83 150.231 139.895 149.862C139.959 149.493 140.032 149.118 140.114 148.737C140.196 148.356 140.278 148.005 140.36 147.683L142.206 140.15H144.333ZM149.756 143.086C150.986 143.086 151.915 143.358 152.542 143.903C153.175 144.448 153.491 145.298 153.491 146.452V153H152.023L151.628 151.62H151.558C151.282 151.972 150.998 152.262 150.705 152.49C150.412 152.719 150.072 152.889 149.686 153C149.305 153.117 148.839 153.176 148.288 153.176C147.708 153.176 147.189 153.07 146.732 152.859C146.275 152.643 145.915 152.314 145.651 151.875C145.388 151.436 145.256 150.879 145.256 150.205C145.256 149.203 145.628 148.45 146.372 147.946C147.122 147.442 148.253 147.164 149.765 147.111L151.452 147.05V146.54C151.452 145.866 151.294 145.386 150.978 145.099C150.667 144.812 150.228 144.668 149.659 144.668C149.173 144.668 148.701 144.738 148.244 144.879C147.787 145.02 147.342 145.192 146.908 145.397L146.24 143.938C146.715 143.687 147.254 143.481 147.857 143.323C148.467 143.165 149.1 143.086 149.756 143.086ZM151.443 148.351L150.187 148.395C149.155 148.43 148.432 148.605 148.016 148.922C147.6 149.238 147.392 149.672 147.392 150.223C147.392 150.703 147.535 151.055 147.822 151.277C148.109 151.494 148.487 151.603 148.956 151.603C149.671 151.603 150.263 151.4 150.731 150.996C151.206 150.586 151.443 149.985 151.443 149.194V148.351ZM161.313 143.086C161.478 143.086 161.656 143.095 161.85 143.112C162.043 143.13 162.21 143.153 162.351 143.183L162.157 145.116C162.034 145.081 161.882 145.055 161.7 145.037C161.524 145.02 161.366 145.011 161.226 145.011C160.856 145.011 160.505 145.072 160.171 145.195C159.837 145.312 159.541 145.494 159.283 145.74C159.025 145.98 158.823 146.282 158.677 146.646C158.53 147.009 158.457 147.431 158.457 147.911V153H156.383V143.271H158L158.281 144.984H158.378C158.571 144.639 158.812 144.322 159.099 144.035C159.386 143.748 159.714 143.52 160.083 143.35C160.458 143.174 160.868 143.086 161.313 143.086ZM169.224 143.086C170.319 143.086 171.172 143.37 171.781 143.938C172.396 144.501 172.704 145.406 172.704 146.654V153H170.639V147.041C170.639 146.285 170.483 145.72 170.173 145.345C169.862 144.964 169.382 144.773 168.731 144.773C167.788 144.773 167.132 145.063 166.763 145.644C166.399 146.224 166.218 147.064 166.218 148.166V153H164.152V143.271H165.761L166.051 144.589H166.165C166.376 144.249 166.637 143.971 166.947 143.754C167.264 143.531 167.615 143.364 168.002 143.253C168.395 143.142 168.802 143.086 169.224 143.086ZM177.661 143.271V153H175.596V143.271H177.661ZM176.642 139.544C176.958 139.544 177.23 139.629 177.459 139.799C177.693 139.969 177.811 140.262 177.811 140.678C177.811 141.088 177.693 141.381 177.459 141.557C177.23 141.727 176.958 141.812 176.642 141.812C176.313 141.812 176.035 141.727 175.807 141.557C175.584 141.381 175.473 141.088 175.473 140.678C175.473 140.262 175.584 139.969 175.807 139.799C176.035 139.629 176.313 139.544 176.642 139.544ZM185.694 143.086C186.79 143.086 187.643 143.37 188.252 143.938C188.867 144.501 189.175 145.406 189.175 146.654V153H187.109V147.041C187.109 146.285 186.954 145.72 186.644 145.345C186.333 144.964 185.853 144.773 185.202 144.773C184.259 144.773 183.603 145.063 183.233 145.644C182.87 146.224 182.688 147.064 182.688 148.166V153H180.623V143.271H182.231L182.521 144.589H182.636C182.847 144.249 183.107 143.971 183.418 143.754C183.734 143.531 184.086 143.364 184.473 143.253C184.865 143.142 185.272 143.086 185.694 143.086ZM194.844 157.324C193.525 157.324 192.515 157.087 191.812 156.612C191.108 156.138 190.757 155.473 190.757 154.617C190.757 154.02 190.944 153.513 191.319 153.097C191.694 152.687 192.23 152.402 192.928 152.244C192.664 152.127 192.436 151.945 192.242 151.699C192.055 151.447 191.961 151.169 191.961 150.864C191.961 150.501 192.063 150.19 192.269 149.933C192.474 149.675 192.781 149.426 193.191 149.186C192.682 148.969 192.271 148.617 191.961 148.131C191.656 147.639 191.504 147.062 191.504 146.399C191.504 145.696 191.653 145.099 191.952 144.606C192.251 144.108 192.688 143.73 193.262 143.473C193.836 143.209 194.53 143.077 195.345 143.077C195.521 143.077 195.711 143.089 195.916 143.112C196.127 143.13 196.32 143.153 196.496 143.183C196.678 143.206 196.815 143.232 196.909 143.262H200.275V144.413L198.623 144.721C198.781 144.943 198.907 145.198 199.001 145.485C199.095 145.767 199.142 146.074 199.142 146.408C199.142 147.416 198.793 148.21 198.096 148.79C197.404 149.364 196.449 149.651 195.23 149.651C194.938 149.64 194.653 149.616 194.378 149.581C194.167 149.71 194.006 149.854 193.895 150.012C193.783 150.164 193.728 150.337 193.728 150.53C193.728 150.688 193.783 150.817 193.895 150.917C194.006 151.011 194.17 151.081 194.387 151.128C194.609 151.175 194.879 151.198 195.195 151.198H196.874C197.94 151.198 198.755 151.424 199.317 151.875C199.88 152.326 200.161 152.988 200.161 153.861C200.161 154.969 199.704 155.821 198.79 156.419C197.876 157.022 196.561 157.324 194.844 157.324ZM194.923 155.874C195.644 155.874 196.25 155.804 196.742 155.663C197.234 155.522 197.606 155.32 197.858 155.057C198.11 154.799 198.236 154.491 198.236 154.134C198.236 153.817 198.157 153.574 197.999 153.404C197.841 153.234 197.604 153.117 197.287 153.053C196.971 152.988 196.578 152.956 196.109 152.956H194.58C194.199 152.956 193.862 153.015 193.569 153.132C193.276 153.255 193.048 153.431 192.884 153.659C192.726 153.888 192.646 154.163 192.646 154.485C192.646 154.931 192.843 155.273 193.235 155.514C193.634 155.754 194.196 155.874 194.923 155.874ZM195.327 148.298C195.931 148.298 196.379 148.134 196.672 147.806C196.965 147.472 197.111 147.003 197.111 146.399C197.111 145.743 196.959 145.251 196.654 144.923C196.355 144.595 195.91 144.431 195.318 144.431C194.738 144.431 194.296 144.598 193.991 144.932C193.692 145.266 193.543 145.761 193.543 146.417C193.543 147.009 193.692 147.472 193.991 147.806C194.296 148.134 194.741 148.298 195.327 148.298ZM203.773 140.15L203.422 144.791H202.095L201.752 140.15H203.773Z" fill="#222222"/>
<path d="M87.2031 166.578V173.969C87.2031 174.776 87.0391 175.495 86.7109 176.125C86.388 176.755 85.8984 177.253 85.2422 177.617C84.5859 177.977 83.763 178.156 82.7734 178.156C81.362 178.156 80.2865 177.773 79.5469 177.008C78.8125 176.242 78.4453 175.219 78.4453 173.938V166.578H79.7812V173.977C79.7812 174.945 80.0365 175.693 80.5469 176.219C81.0625 176.745 81.8307 177.008 82.8516 177.008C83.5495 177.008 84.1198 176.883 84.5625 176.633C85.0104 176.378 85.3411 176.023 85.5547 175.57C85.7734 175.112 85.8828 174.583 85.8828 173.984V166.578H87.2031ZM90.2344 178V166.578H91.5625V178H90.2344ZM107.789 178H106.258L100.031 168.406H99.9688C99.9844 168.661 100.003 168.953 100.023 169.281C100.044 169.604 100.06 169.951 100.07 170.32C100.086 170.685 100.094 171.057 100.094 171.438V178H98.8594V166.578H100.383L106.586 176.141H106.641C106.63 175.958 106.617 175.701 106.602 175.367C106.586 175.029 106.57 174.667 106.555 174.281C106.544 173.891 106.539 173.529 106.539 173.195V166.578H107.789V178ZM118.094 173.703C118.094 174.406 118.003 175.034 117.82 175.586C117.638 176.138 117.375 176.604 117.031 176.984C116.688 177.365 116.271 177.656 115.781 177.859C115.297 178.057 114.747 178.156 114.133 178.156C113.56 178.156 113.034 178.057 112.555 177.859C112.081 177.656 111.669 177.365 111.32 176.984C110.977 176.604 110.708 176.138 110.516 175.586C110.328 175.034 110.234 174.406 110.234 173.703C110.234 172.766 110.393 171.969 110.711 171.312C111.029 170.651 111.482 170.148 112.07 169.805C112.664 169.456 113.37 169.281 114.188 169.281C114.969 169.281 115.651 169.456 116.234 169.805C116.823 170.154 117.279 170.659 117.602 171.32C117.93 171.977 118.094 172.771 118.094 173.703ZM111.578 173.703C111.578 174.391 111.669 174.987 111.852 175.492C112.034 175.997 112.315 176.388 112.695 176.664C113.076 176.94 113.565 177.078 114.164 177.078C114.758 177.078 115.245 176.94 115.625 176.664C116.01 176.388 116.294 175.997 116.477 175.492C116.659 174.987 116.75 174.391 116.75 173.703C116.75 173.021 116.659 172.432 116.477 171.938C116.294 171.438 116.013 171.052 115.633 170.781C115.253 170.51 114.76 170.375 114.156 170.375C113.266 170.375 112.612 170.669 112.195 171.258C111.784 171.846 111.578 172.661 111.578 173.703ZM123.102 177.094C123.315 177.094 123.534 177.076 123.758 177.039C123.982 177.003 124.164 176.958 124.305 176.906V177.914C124.154 177.982 123.943 178.039 123.672 178.086C123.406 178.133 123.146 178.156 122.891 178.156C122.438 178.156 122.026 178.078 121.656 177.922C121.286 177.76 120.99 177.49 120.766 177.109C120.547 176.729 120.438 176.203 120.438 175.531V170.453H119.219V169.82L120.445 169.312L120.961 167.453H121.742V169.438H124.25V170.453H121.742V175.492C121.742 176.029 121.865 176.43 122.109 176.695C122.359 176.961 122.69 177.094 123.102 177.094ZM127.336 169.438V178H126.039V169.438H127.336ZM126.703 166.234C126.917 166.234 127.099 166.305 127.25 166.445C127.406 166.581 127.484 166.794 127.484 167.086C127.484 167.372 127.406 167.586 127.25 167.727C127.099 167.867 126.917 167.938 126.703 167.938C126.479 167.938 126.292 167.867 126.141 167.727C125.995 167.586 125.922 167.372 125.922 167.086C125.922 166.794 125.995 166.581 126.141 166.445C126.292 166.305 126.479 166.234 126.703 166.234ZM133.898 170.453H131.766V178H130.469V170.453H128.953V169.828L130.469 169.398V168.828C130.469 168.109 130.576 167.526 130.789 167.078C131.003 166.625 131.312 166.292 131.719 166.078C132.125 165.865 132.62 165.758 133.203 165.758C133.531 165.758 133.831 165.786 134.102 165.844C134.378 165.901 134.62 165.966 134.828 166.039L134.492 167.062C134.315 167.005 134.115 166.953 133.891 166.906C133.672 166.854 133.448 166.828 133.219 166.828C132.724 166.828 132.357 166.99 132.117 167.312C131.883 167.63 131.766 168.13 131.766 168.812V169.438H133.898V170.453ZM136.766 169.438V178H135.469V169.438H136.766ZM136.133 166.234C136.346 166.234 136.529 166.305 136.68 166.445C136.836 166.581 136.914 166.794 136.914 167.086C136.914 167.372 136.836 167.586 136.68 167.727C136.529 167.867 136.346 167.938 136.133 167.938C135.909 167.938 135.721 167.867 135.57 167.727C135.424 167.586 135.352 167.372 135.352 167.086C135.352 166.794 135.424 166.581 135.57 166.445C135.721 166.305 135.909 166.234 136.133 166.234ZM142.938 178.156C142.167 178.156 141.487 177.997 140.898 177.68C140.31 177.362 139.852 176.878 139.523 176.227C139.195 175.576 139.031 174.755 139.031 173.766C139.031 172.729 139.203 171.883 139.547 171.227C139.896 170.565 140.375 170.076 140.984 169.758C141.594 169.44 142.286 169.281 143.062 169.281C143.49 169.281 143.901 169.326 144.297 169.414C144.698 169.497 145.026 169.604 145.281 169.734L144.891 170.82C144.63 170.716 144.328 170.622 143.984 170.539C143.646 170.456 143.328 170.414 143.031 170.414C142.438 170.414 141.943 170.542 141.547 170.797C141.156 171.052 140.862 171.427 140.664 171.922C140.471 172.417 140.375 173.026 140.375 173.75C140.375 174.443 140.469 175.034 140.656 175.523C140.849 176.013 141.133 176.388 141.508 176.648C141.888 176.904 142.362 177.031 142.93 177.031C143.383 177.031 143.792 176.984 144.156 176.891C144.521 176.792 144.852 176.677 145.148 176.547V177.703C144.862 177.849 144.542 177.961 144.188 178.039C143.839 178.117 143.422 178.156 142.938 178.156ZM150.383 169.297C151.404 169.297 152.161 169.526 152.656 169.984C153.151 170.443 153.398 171.174 153.398 172.18V178H152.453L152.203 176.734H152.141C151.901 177.047 151.651 177.31 151.391 177.523C151.13 177.732 150.828 177.891 150.484 178C150.146 178.104 149.729 178.156 149.234 178.156C148.714 178.156 148.25 178.065 147.844 177.883C147.443 177.701 147.125 177.424 146.891 177.055C146.661 176.685 146.547 176.216 146.547 175.648C146.547 174.794 146.885 174.138 147.562 173.68C148.24 173.221 149.271 172.971 150.656 172.93L152.133 172.867V172.344C152.133 171.604 151.974 171.086 151.656 170.789C151.339 170.492 150.891 170.344 150.312 170.344C149.865 170.344 149.438 170.409 149.031 170.539C148.625 170.669 148.24 170.823 147.875 171L147.477 170.016C147.862 169.818 148.305 169.648 148.805 169.508C149.305 169.367 149.831 169.297 150.383 169.297ZM152.117 173.781L150.812 173.836C149.745 173.878 148.992 174.052 148.555 174.359C148.117 174.667 147.898 175.102 147.898 175.664C147.898 176.154 148.047 176.516 148.344 176.75C148.641 176.984 149.034 177.102 149.523 177.102C150.284 177.102 150.906 176.891 151.391 176.469C151.875 176.047 152.117 175.414 152.117 174.57V173.781ZM158.836 177.094C159.049 177.094 159.268 177.076 159.492 177.039C159.716 177.003 159.898 176.958 160.039 176.906V177.914C159.888 177.982 159.677 178.039 159.406 178.086C159.141 178.133 158.88 178.156 158.625 178.156C158.172 178.156 157.76 178.078 157.391 177.922C157.021 177.76 156.724 177.49 156.5 177.109C156.281 176.729 156.172 176.203 156.172 175.531V170.453H154.953V169.82L156.18 169.312L156.695 167.453H157.477V169.438H159.984V170.453H157.477V175.492C157.477 176.029 157.599 176.43 157.844 176.695C158.094 176.961 158.424 177.094 158.836 177.094ZM163.07 169.438V178H161.773V169.438H163.07ZM162.438 166.234C162.651 166.234 162.833 166.305 162.984 166.445C163.141 166.581 163.219 166.794 163.219 167.086C163.219 167.372 163.141 167.586 162.984 167.727C162.833 167.867 162.651 167.938 162.438 167.938C162.214 167.938 162.026 167.867 161.875 167.727C161.729 167.586 161.656 167.372 161.656 167.086C161.656 166.794 161.729 166.581 161.875 166.445C162.026 166.305 162.214 166.234 162.438 166.234ZM173.203 173.703C173.203 174.406 173.112 175.034 172.93 175.586C172.747 176.138 172.484 176.604 172.141 176.984C171.797 177.365 171.38 177.656 170.891 177.859C170.406 178.057 169.857 178.156 169.242 178.156C168.669 178.156 168.143 178.057 167.664 177.859C167.19 177.656 166.779 177.365 166.43 176.984C166.086 176.604 165.818 176.138 165.625 175.586C165.438 175.034 165.344 174.406 165.344 173.703C165.344 172.766 165.503 171.969 165.82 171.312C166.138 170.651 166.591 170.148 167.18 169.805C167.773 169.456 168.479 169.281 169.297 169.281C170.078 169.281 170.76 169.456 171.344 169.805C171.932 170.154 172.388 170.659 172.711 171.32C173.039 171.977 173.203 172.771 173.203 173.703ZM166.688 173.703C166.688 174.391 166.779 174.987 166.961 175.492C167.143 175.997 167.424 176.388 167.805 176.664C168.185 176.94 168.674 177.078 169.273 177.078C169.867 177.078 170.354 176.94 170.734 176.664C171.12 176.388 171.404 175.997 171.586 175.492C171.768 174.987 171.859 174.391 171.859 173.703C171.859 173.021 171.768 172.432 171.586 171.938C171.404 171.438 171.122 171.052 170.742 170.781C170.362 170.51 169.87 170.375 169.266 170.375C168.375 170.375 167.721 170.669 167.305 171.258C166.893 171.846 166.688 172.661 166.688 173.703ZM179.5 169.281C180.516 169.281 181.284 169.531 181.805 170.031C182.326 170.526 182.586 171.323 182.586 172.422V178H181.305V172.508C181.305 171.794 181.141 171.26 180.812 170.906C180.49 170.552 179.992 170.375 179.32 170.375C178.372 170.375 177.706 170.643 177.32 171.18C176.935 171.716 176.742 172.495 176.742 173.516V178H175.445V169.438H176.492L176.688 170.672H176.758C176.94 170.37 177.172 170.117 177.453 169.914C177.734 169.706 178.049 169.549 178.398 169.445C178.747 169.336 179.115 169.281 179.5 169.281Z" fill="#222222"/>
<path d="M332 153.5L322 163.5M322 153.5L332 163.5" stroke="#222222" stroke-width="1.6" stroke-linecap="round" stroke-linejoin="round"/>
</g>
<g filter="url(#filter2_d_811_381)">
<rect x="373" y="22" width="320" height="75" rx="12" fill="#E8F8EE" shape-rendering="crispEdges"/>
<rect x="374" y="23" width="318" height="73" rx="11" stroke="#15833C" stroke-width="2" shape-rendering="crispEdges"/>
<path d="M392.5 59.5L395.5 62.5L401.5 56.5M407 59.5C407 65.0228 402.523 69.5 397 69.5C391.477 69.5 387 65.0228 387 59.5C387 53.9771 391.477 49.5 397 49.5C402.523 49.5 407 53.9771 407 59.5Z" stroke="#15833C" stroke-width="1.6" stroke-linecap="round" stroke-linejoin="round"/>
<path d="M427.144 54H425.025V42.9434H421.264V41.1504H430.896V42.9434H427.144V54ZM431.187 44.2705H433.437L435.432 49.8252C435.52 50.0771 435.599 50.3262 435.669 50.5723C435.745 50.8125 435.81 51.0498 435.862 51.2842C435.921 51.5186 435.968 51.7529 436.003 51.9873H436.056C436.114 51.6826 436.196 51.3428 436.302 50.9678C436.413 50.5869 436.536 50.2061 436.671 49.8252L438.587 44.2705H440.811L436.636 55.3359C436.396 55.9688 436.1 56.5078 435.748 56.9531C435.402 57.4043 434.992 57.7441 434.518 57.9727C434.043 58.207 433.501 58.3242 432.892 58.3242C432.599 58.3242 432.344 58.3066 432.127 58.2715C431.91 58.2422 431.726 58.21 431.573 58.1748V56.5225C431.696 56.5518 431.852 56.5781 432.039 56.6016C432.227 56.625 432.42 56.6367 432.619 56.6367C432.988 56.6367 433.308 56.5635 433.577 56.417C433.847 56.2705 434.075 56.0625 434.263 55.793C434.45 55.5293 434.605 55.2275 434.729 54.8877L435.071 53.9736L431.187 44.2705ZM447.279 44.0859C448.434 44.0859 449.359 44.5078 450.057 45.3516C450.76 46.1953 451.111 47.4492 451.111 49.1133C451.111 50.2148 450.947 51.1436 450.619 51.8994C450.297 52.6494 449.843 53.2178 449.257 53.6045C448.677 53.9854 448 54.1758 447.227 54.1758C446.734 54.1758 446.307 54.1113 445.943 53.9824C445.58 53.8535 445.27 53.6865 445.012 53.4814C444.754 53.2705 444.537 53.042 444.361 52.7959H444.238C444.268 53.0303 444.294 53.291 444.317 53.5781C444.347 53.8594 444.361 54.1172 444.361 54.3516V58.3154H442.287V44.2705H443.975L444.265 45.6152H444.361C444.543 45.3398 444.763 45.085 445.021 44.8506C445.284 44.6162 445.601 44.4316 445.97 44.2969C446.345 44.1562 446.781 44.0859 447.279 44.0859ZM446.726 45.7734C446.157 45.7734 445.7 45.8877 445.354 46.1162C445.015 46.3389 444.766 46.6758 444.607 47.127C444.455 47.5781 444.373 48.1436 444.361 48.8232V49.1133C444.361 49.834 444.435 50.4463 444.581 50.9502C444.733 51.4482 444.982 51.8291 445.328 52.0928C445.68 52.3506 446.154 52.4795 446.752 52.4795C447.256 52.4795 447.672 52.3418 448 52.0664C448.334 51.791 448.583 51.3984 448.747 50.8887C448.911 50.3789 448.993 49.7783 448.993 49.0869C448.993 48.0381 448.806 47.2236 448.431 46.6436C448.062 46.0635 447.493 45.7734 446.726 45.7734ZM457.378 44.0859C458.245 44.0859 458.989 44.2646 459.61 44.6221C460.231 44.9795 460.709 45.4863 461.043 46.1426C461.377 46.7988 461.544 47.584 461.544 48.498V49.6055H455.049C455.072 50.5488 455.324 51.2754 455.805 51.7852C456.291 52.2949 456.971 52.5498 457.844 52.5498C458.465 52.5498 459.021 52.4912 459.514 52.374C460.012 52.251 460.524 52.0723 461.052 51.8379V53.5166C460.565 53.7451 460.07 53.9121 459.566 54.0176C459.062 54.123 458.459 54.1758 457.756 54.1758C456.801 54.1758 455.96 53.9912 455.233 53.6221C454.513 53.2471 453.947 52.6904 453.537 51.9521C453.133 51.2139 452.931 50.2969 452.931 49.2012C452.931 48.1113 453.115 47.1855 453.484 46.4238C453.854 45.6621 454.372 45.082 455.04 44.6836C455.708 44.2852 456.487 44.0859 457.378 44.0859ZM457.378 45.6416C456.728 45.6416 456.2 45.8525 455.796 46.2744C455.397 46.6963 455.163 47.3145 455.093 48.1289H459.522C459.517 47.6426 459.435 47.2119 459.276 46.8369C459.124 46.4619 458.89 46.1689 458.573 45.958C458.263 45.7471 457.864 45.6416 457.378 45.6416ZM470.271 41.1504L469.92 45.791H468.593L468.25 41.1504H470.271ZM476.872 41.1504C478.53 41.1504 479.74 41.4902 480.502 42.1699C481.264 42.8496 481.645 43.8018 481.645 45.0264C481.645 45.583 481.557 46.1133 481.381 46.6172C481.211 47.1152 480.93 47.5576 480.537 47.9443C480.145 48.3252 479.626 48.627 478.981 48.8496C478.343 49.0723 477.555 49.1836 476.617 49.1836H475.246V54H473.137V41.1504H476.872ZM476.731 42.8994H475.246V47.4258H476.397C477.06 47.4258 477.622 47.3496 478.085 47.1973C478.548 47.0391 478.899 46.79 479.14 46.4502C479.38 46.1104 479.5 45.6621 479.5 45.1055C479.5 44.3613 479.274 43.8076 478.823 43.4443C478.378 43.0811 477.681 42.8994 476.731 42.8994ZM492.613 49.1133C492.613 49.9219 492.508 50.6396 492.297 51.2666C492.086 51.8936 491.778 52.4238 491.374 52.8574C490.97 53.2852 490.483 53.6133 489.915 53.8418C489.347 54.0645 488.705 54.1758 487.99 54.1758C487.322 54.1758 486.71 54.0645 486.153 53.8418C485.597 53.6133 485.113 53.2852 484.703 52.8574C484.299 52.4238 483.985 51.8936 483.763 51.2666C483.54 50.6396 483.429 49.9219 483.429 49.1133C483.429 48.041 483.613 47.1328 483.982 46.3887C484.357 45.6387 484.891 45.0674 485.582 44.6748C486.273 44.2822 487.097 44.0859 488.052 44.0859C488.948 44.0859 489.739 44.2822 490.425 44.6748C491.11 45.0674 491.646 45.6387 492.033 46.3887C492.42 47.1387 492.613 48.0469 492.613 49.1133ZM485.556 49.1133C485.556 49.8223 485.641 50.4287 485.811 50.9326C485.986 51.4365 486.256 51.8232 486.619 52.0928C486.982 52.3564 487.451 52.4883 488.025 52.4883C488.6 52.4883 489.068 52.3564 489.432 52.0928C489.795 51.8232 490.062 51.4365 490.231 50.9326C490.401 50.4287 490.486 49.8223 490.486 49.1133C490.486 48.4043 490.401 47.8037 490.231 47.3115C490.062 46.8135 489.795 46.4355 489.432 46.1777C489.068 45.9141 488.597 45.7822 488.017 45.7822C487.161 45.7822 486.537 46.0693 486.145 46.6436C485.752 47.2178 485.556 48.041 485.556 49.1133ZM501.525 51.2227C501.525 51.8613 501.37 52.4004 501.06 52.8398C500.749 53.2793 500.295 53.6133 499.697 53.8418C499.105 54.0645 498.379 54.1758 497.518 54.1758C496.838 54.1758 496.252 54.126 495.76 54.0264C495.273 53.9326 494.813 53.7861 494.38 53.5869V51.8027C494.843 52.0195 495.361 52.207 495.936 52.3652C496.516 52.5234 497.063 52.6025 497.579 52.6025C498.259 52.6025 498.748 52.4971 499.047 52.2861C499.346 52.0693 499.495 51.7822 499.495 51.4248C499.495 51.2139 499.434 51.0264 499.311 50.8623C499.193 50.6924 498.971 50.5195 498.643 50.3438C498.32 50.1621 497.846 49.9453 497.219 49.6934C496.604 49.4473 496.085 49.2012 495.663 48.9551C495.241 48.709 494.922 48.4131 494.705 48.0674C494.488 47.7158 494.38 47.2676 494.38 46.7227C494.38 45.8613 494.72 45.208 495.399 44.7627C496.085 44.3115 496.99 44.0859 498.115 44.0859C498.713 44.0859 499.275 44.1475 499.803 44.2705C500.336 44.3877 500.857 44.5605 501.367 44.7891L500.717 46.3447C500.277 46.1514 499.835 45.9932 499.39 45.8701C498.95 45.7412 498.502 45.6768 498.045 45.6768C497.512 45.6768 497.104 45.7588 496.823 45.9229C496.548 46.0869 496.41 46.3213 496.41 46.626C496.41 46.8545 496.478 47.0479 496.612 47.2061C496.747 47.3643 496.979 47.5225 497.307 47.6807C497.641 47.8389 498.104 48.0352 498.695 48.2695C499.275 48.4922 499.776 48.7266 500.198 48.9727C500.626 49.2129 500.954 49.5088 501.183 49.8604C501.411 50.2119 501.525 50.666 501.525 51.2227ZM505.823 44.2705V54H503.758V44.2705H505.823ZM504.804 40.5439C505.12 40.5439 505.393 40.6289 505.621 40.7988C505.855 40.9688 505.973 41.2617 505.973 41.6777C505.973 42.0879 505.855 42.3809 505.621 42.5566C505.393 42.7266 505.12 42.8115 504.804 42.8115C504.476 42.8115 504.197 42.7266 503.969 42.5566C503.746 42.3809 503.635 42.0879 503.635 41.6777C503.635 41.2617 503.746 40.9688 503.969 40.7988C504.197 40.6289 504.476 40.5439 504.804 40.5439ZM512.406 52.5059C512.676 52.5059 512.942 52.4824 513.206 52.4355C513.47 52.3828 513.71 52.3213 513.927 52.251V53.8154C513.698 53.915 513.402 54 513.039 54.0703C512.676 54.1406 512.298 54.1758 511.905 54.1758C511.354 54.1758 510.859 54.085 510.42 53.9033C509.98 53.7158 509.632 53.3965 509.374 52.9453C509.116 52.4941 508.987 51.8701 508.987 51.0732V45.8438H507.66V44.9209L509.084 44.1914L509.761 42.1084H511.062V44.2705H513.848V45.8438H511.062V51.0469C511.062 51.5391 511.185 51.9053 511.431 52.1455C511.677 52.3857 512.002 52.5059 512.406 52.5059ZM517.97 44.2705V54H515.904V44.2705H517.97ZM516.95 40.5439C517.267 40.5439 517.539 40.6289 517.768 40.7988C518.002 40.9688 518.119 41.2617 518.119 41.6777C518.119 42.0879 518.002 42.3809 517.768 42.5566C517.539 42.7266 517.267 42.8115 516.95 42.8115C516.622 42.8115 516.344 42.7266 516.115 42.5566C515.893 42.3809 515.781 42.0879 515.781 41.6777C515.781 41.2617 515.893 40.9688 516.115 40.7988C516.344 40.6289 516.622 40.5439 516.95 40.5439ZM523.155 54L519.455 44.2705H521.644L523.647 49.9834C523.776 50.3467 523.894 50.7393 523.999 51.1611C524.104 51.583 524.178 51.9375 524.219 52.2246H524.289C524.33 51.9258 524.409 51.5684 524.526 51.1523C524.644 50.7305 524.764 50.3408 524.887 49.9834L526.891 44.2705H529.07L525.37 54H523.155ZM534.423 44.0859C535.29 44.0859 536.034 44.2646 536.655 44.6221C537.276 44.9795 537.754 45.4863 538.088 46.1426C538.422 46.7988 538.589 47.584 538.589 48.498V49.6055H532.094C532.117 50.5488 532.369 51.2754 532.85 51.7852C533.336 52.2949 534.016 52.5498 534.889 52.5498C535.51 52.5498 536.066 52.4912 536.559 52.374C537.057 52.251 537.569 52.0723 538.097 51.8379V53.5166C537.61 53.7451 537.115 53.9121 536.611 54.0176C536.107 54.123 535.504 54.1758 534.801 54.1758C533.846 54.1758 533.005 53.9912 532.278 53.6221C531.558 53.2471 530.992 52.6904 530.582 51.9521C530.178 51.2139 529.976 50.2969 529.976 49.2012C529.976 48.1113 530.16 47.1855 530.529 46.4238C530.898 45.6621 531.417 45.082 532.085 44.6836C532.753 44.2852 533.532 44.0859 534.423 44.0859ZM534.423 45.6416C533.772 45.6416 533.245 45.8525 532.841 46.2744C532.442 46.6963 532.208 47.3145 532.138 48.1289H536.567C536.562 47.6426 536.479 47.2119 536.321 46.8369C536.169 46.4619 535.935 46.1689 535.618 45.958C535.308 45.7471 534.909 45.6416 534.423 45.6416ZM542.641 41.1504L542.289 45.791H540.962L540.619 41.1504H542.641Z" fill="#222222"/>
<path d="M431.203 67.5781V74.9688C431.203 75.776 431.039 76.4948 430.711 77.125C430.388 77.7552 429.898 78.2526 429.242 78.6172C428.586 78.9766 427.763 79.1562 426.773 79.1562C425.362 79.1562 424.286 78.7734 423.547 78.0078C422.812 77.2422 422.445 76.2188 422.445 74.9375V67.5781H423.781V74.9766C423.781 75.9453 424.036 76.6927 424.547 77.2188C425.062 77.7448 425.831 78.0078 426.852 78.0078C427.549 78.0078 428.12 77.8828 428.562 77.6328C429.01 77.3776 429.341 77.0234 429.555 76.5703C429.773 76.112 429.883 75.5833 429.883 74.9844V67.5781H431.203ZM434.234 79V67.5781H435.562V79H434.234ZM451.789 79H450.258L444.031 69.4062H443.969C443.984 69.6615 444.003 69.9531 444.023 70.2812C444.044 70.6042 444.06 70.9505 444.07 71.3203C444.086 71.6849 444.094 72.0573 444.094 72.4375V79H442.859V67.5781H444.383L450.586 77.1406H450.641C450.63 76.9583 450.617 76.7005 450.602 76.3672C450.586 76.0286 450.57 75.6667 450.555 75.2812C450.544 74.8906 450.539 74.5286 450.539 74.1953V67.5781H451.789V79ZM462.094 74.7031C462.094 75.4062 462.003 76.0339 461.82 76.5859C461.638 77.138 461.375 77.6042 461.031 77.9844C460.688 78.3646 460.271 78.6562 459.781 78.8594C459.297 79.0573 458.747 79.1562 458.133 79.1562C457.56 79.1562 457.034 79.0573 456.555 78.8594C456.081 78.6562 455.669 78.3646 455.32 77.9844C454.977 77.6042 454.708 77.138 454.516 76.5859C454.328 76.0339 454.234 75.4062 454.234 74.7031C454.234 73.7656 454.393 72.9688 454.711 72.3125C455.029 71.651 455.482 71.1484 456.07 70.8047C456.664 70.4557 457.37 70.2812 458.188 70.2812C458.969 70.2812 459.651 70.4557 460.234 70.8047C460.823 71.1536 461.279 71.6589 461.602 72.3203C461.93 72.9766 462.094 73.7708 462.094 74.7031ZM455.578 74.7031C455.578 75.3906 455.669 75.987 455.852 76.4922C456.034 76.9974 456.315 77.388 456.695 77.6641C457.076 77.9401 457.565 78.0781 458.164 78.0781C458.758 78.0781 459.245 77.9401 459.625 77.6641C460.01 77.388 460.294 76.9974 460.477 76.4922C460.659 75.987 460.75 75.3906 460.75 74.7031C460.75 74.0208 460.659 73.4323 460.477 72.9375C460.294 72.4375 460.013 72.0521 459.633 71.7812C459.253 71.5104 458.76 71.375 458.156 71.375C457.266 71.375 456.612 71.6693 456.195 72.2578C455.784 72.8464 455.578 73.6615 455.578 74.7031ZM467.102 78.0938C467.315 78.0938 467.534 78.0755 467.758 78.0391C467.982 78.0026 468.164 77.9583 468.305 77.9062V78.9141C468.154 78.9818 467.943 79.0391 467.672 79.0859C467.406 79.1328 467.146 79.1562 466.891 79.1562C466.438 79.1562 466.026 79.0781 465.656 78.9219C465.286 78.7604 464.99 78.4896 464.766 78.1094C464.547 77.7292 464.438 77.2031 464.438 76.5312V71.4531H463.219V70.8203L464.445 70.3125L464.961 68.4531H465.742V70.4375H468.25V71.4531H465.742V76.4922C465.742 77.0286 465.865 77.4297 466.109 77.6953C466.359 77.9609 466.69 78.0938 467.102 78.0938ZM471.336 70.4375V79H470.039V70.4375H471.336ZM470.703 67.2344C470.917 67.2344 471.099 67.3047 471.25 67.4453C471.406 67.5807 471.484 67.7943 471.484 68.0859C471.484 68.3724 471.406 68.5859 471.25 68.7266C471.099 68.8672 470.917 68.9375 470.703 68.9375C470.479 68.9375 470.292 68.8672 470.141 68.7266C469.995 68.5859 469.922 68.3724 469.922 68.0859C469.922 67.7943 469.995 67.5807 470.141 67.4453C470.292 67.3047 470.479 67.2344 470.703 67.2344ZM477.898 71.4531H475.766V79H474.469V71.4531H472.953V70.8281L474.469 70.3984V69.8281C474.469 69.1094 474.576 68.526 474.789 68.0781C475.003 67.625 475.312 67.2917 475.719 67.0781C476.125 66.8646 476.62 66.7578 477.203 66.7578C477.531 66.7578 477.831 66.7865 478.102 66.8438C478.378 66.901 478.62 66.9661 478.828 67.0391L478.492 68.0625C478.315 68.0052 478.115 67.9531 477.891 67.9062C477.672 67.8542 477.448 67.8281 477.219 67.8281C476.724 67.8281 476.357 67.9896 476.117 68.3125C475.883 68.6302 475.766 69.1302 475.766 69.8125V70.4375H477.898V71.4531ZM480.766 70.4375V79H479.469V70.4375H480.766ZM480.133 67.2344C480.346 67.2344 480.529 67.3047 480.68 67.4453C480.836 67.5807 480.914 67.7943 480.914 68.0859C480.914 68.3724 480.836 68.5859 480.68 68.7266C480.529 68.8672 480.346 68.9375 480.133 68.9375C479.909 68.9375 479.721 68.8672 479.57 68.7266C479.424 68.5859 479.352 68.3724 479.352 68.0859C479.352 67.7943 479.424 67.5807 479.57 67.4453C479.721 67.3047 479.909 67.2344 480.133 67.2344ZM486.938 79.1562C486.167 79.1562 485.487 78.9974 484.898 78.6797C484.31 78.362 483.852 77.8776 483.523 77.2266C483.195 76.5755 483.031 75.7552 483.031 74.7656C483.031 73.7292 483.203 72.8828 483.547 72.2266C483.896 71.5651 484.375 71.0755 484.984 70.7578C485.594 70.4401 486.286 70.2812 487.062 70.2812C487.49 70.2812 487.901 70.3255 488.297 70.4141C488.698 70.4974 489.026 70.6042 489.281 70.7344L488.891 71.8203C488.63 71.7161 488.328 71.6224 487.984 71.5391C487.646 71.4557 487.328 71.4141 487.031 71.4141C486.438 71.4141 485.943 71.5417 485.547 71.7969C485.156 72.0521 484.862 72.4271 484.664 72.9219C484.471 73.4167 484.375 74.026 484.375 74.75C484.375 75.4427 484.469 76.0339 484.656 76.5234C484.849 77.013 485.133 77.388 485.508 77.6484C485.888 77.9036 486.362 78.0312 486.93 78.0312C487.383 78.0312 487.792 77.9844 488.156 77.8906C488.521 77.7917 488.852 77.6771 489.148 77.5469V78.7031C488.862 78.849 488.542 78.9609 488.188 79.0391C487.839 79.1172 487.422 79.1562 486.938 79.1562ZM494.383 70.2969C495.404 70.2969 496.161 70.526 496.656 70.9844C497.151 71.4427 497.398 72.1745 497.398 73.1797V79H496.453L496.203 77.7344H496.141C495.901 78.0469 495.651 78.3099 495.391 78.5234C495.13 78.7318 494.828 78.8906 494.484 79C494.146 79.1042 493.729 79.1562 493.234 79.1562C492.714 79.1562 492.25 79.0651 491.844 78.8828C491.443 78.7005 491.125 78.4245 490.891 78.0547C490.661 77.6849 490.547 77.2161 490.547 76.6484C490.547 75.7943 490.885 75.138 491.562 74.6797C492.24 74.2214 493.271 73.9714 494.656 73.9297L496.133 73.8672V73.3438C496.133 72.6042 495.974 72.0859 495.656 71.7891C495.339 71.4922 494.891 71.3438 494.312 71.3438C493.865 71.3438 493.438 71.4089 493.031 71.5391C492.625 71.6693 492.24 71.8229 491.875 72L491.477 71.0156C491.862 70.8177 492.305 70.6484 492.805 70.5078C493.305 70.3672 493.831 70.2969 494.383 70.2969ZM496.117 74.7812L494.812 74.8359C493.745 74.8776 492.992 75.0521 492.555 75.3594C492.117 75.6667 491.898 76.1016 491.898 76.6641C491.898 77.1536 492.047 77.5156 492.344 77.75C492.641 77.9844 493.034 78.1016 493.523 78.1016C494.284 78.1016 494.906 77.8906 495.391 77.4688C495.875 77.0469 496.117 76.4141 496.117 75.5703V74.7812ZM502.836 78.0938C503.049 78.0938 503.268 78.0755 503.492 78.0391C503.716 78.0026 503.898 77.9583 504.039 77.9062V78.9141C503.888 78.9818 503.677 79.0391 503.406 79.0859C503.141 79.1328 502.88 79.1562 502.625 79.1562C502.172 79.1562 501.76 79.0781 501.391 78.9219C501.021 78.7604 500.724 78.4896 500.5 78.1094C500.281 77.7292 500.172 77.2031 500.172 76.5312V71.4531H498.953V70.8203L500.18 70.3125L500.695 68.4531H501.477V70.4375H503.984V71.4531H501.477V76.4922C501.477 77.0286 501.599 77.4297 501.844 77.6953C502.094 77.9609 502.424 78.0938 502.836 78.0938ZM507.07 70.4375V79H505.773V70.4375H507.07ZM506.438 67.2344C506.651 67.2344 506.833 67.3047 506.984 67.4453C507.141 67.5807 507.219 67.7943 507.219 68.0859C507.219 68.3724 507.141 68.5859 506.984 68.7266C506.833 68.8672 506.651 68.9375 506.438 68.9375C506.214 68.9375 506.026 68.8672 505.875 68.7266C505.729 68.5859 505.656 68.3724 505.656 68.0859C505.656 67.7943 505.729 67.5807 505.875 67.4453C506.026 67.3047 506.214 67.2344 506.438 67.2344ZM517.203 74.7031C517.203 75.4062 517.112 76.0339 516.93 76.5859C516.747 77.138 516.484 77.6042 516.141 77.9844C515.797 78.3646 515.38 78.6562 514.891 78.8594C514.406 79.0573 513.857 79.1562 513.242 79.1562C512.669 79.1562 512.143 79.0573 511.664 78.8594C511.19 78.6562 510.779 78.3646 510.43 77.9844C510.086 77.6042 509.818 77.138 509.625 76.5859C509.438 76.0339 509.344 75.4062 509.344 74.7031C509.344 73.7656 509.503 72.9688 509.82 72.3125C510.138 71.651 510.591 71.1484 511.18 70.8047C511.773 70.4557 512.479 70.2812 513.297 70.2812C514.078 70.2812 514.76 70.4557 515.344 70.8047C515.932 71.1536 516.388 71.6589 516.711 72.3203C517.039 72.9766 517.203 73.7708 517.203 74.7031ZM510.688 74.7031C510.688 75.3906 510.779 75.987 510.961 76.4922C511.143 76.9974 511.424 77.388 511.805 77.6641C512.185 77.9401 512.674 78.0781 513.273 78.0781C513.867 78.0781 514.354 77.9401 514.734 77.6641C515.12 77.388 515.404 76.9974 515.586 76.4922C515.768 75.987 515.859 75.3906 515.859 74.7031C515.859 74.0208 515.768 73.4323 515.586 72.9375C515.404 72.4375 515.122 72.0521 514.742 71.7812C514.362 71.5104 513.87 71.375 513.266 71.375C512.375 71.375 511.721 71.6693 511.305 72.2578C510.893 72.8464 510.688 73.6615 510.688 74.7031ZM523.5 70.2812C524.516 70.2812 525.284 70.5312 525.805 71.0312C526.326 71.526 526.586 72.3229 526.586 73.4219V79H525.305V73.5078C525.305 72.7943 525.141 72.2604 524.812 71.9062C524.49 71.5521 523.992 71.375 523.32 71.375C522.372 71.375 521.706 71.6432 521.32 72.1797C520.935 72.7161 520.742 73.4948 520.742 74.5156V79H519.445V70.4375H520.492L520.688 71.6719H520.758C520.94 71.3698 521.172 71.1172 521.453 70.9141C521.734 70.7057 522.049 70.5495 522.398 70.4453C522.747 70.3359 523.115 70.2812 523.5 70.2812Z" fill="#222222"/>
<path d="M676 54.5L666 64.5M666 54.5L676 64.5" stroke="#222222" stroke-width="1.6" stroke-linecap="round" stroke-linejoin="round"/>
</g>
<g filter="url(#filter3_d_811_381)">
<rect x="373" y="121" width="320" height="75" rx="12" fill="#FBE9E9" shape-rendering="crispEdges"/>
<rect x="374" y="122" width="318" height="73" rx="11" stroke="#991A1A" stroke-width="2" shape-rendering="crispEdges"/>
<path d="M400 155.5L394 161.5M394 155.5L400 161.5M407 158.5C407 164.023 402.523 168.5 397 168.5C391.477 168.5 387 164.023 387 158.5C387 152.977 391.477 148.5 397 148.5C402.523 148.5 407 152.977 407 158.5Z" stroke="#5B1010" stroke-width="1.6" stroke-linecap="round" stroke-linejoin="round"/>
<path d="M427.144 153H425.025V141.943H421.264V140.15H430.896V141.943H427.144V153ZM431.187 143.271H433.437L435.432 148.825C435.52 149.077 435.599 149.326 435.669 149.572C435.745 149.812 435.81 150.05 435.862 150.284C435.921 150.519 435.968 150.753 436.003 150.987H436.056C436.114 150.683 436.196 150.343 436.302 149.968C436.413 149.587 436.536 149.206 436.671 148.825L438.587 143.271H440.811L436.636 154.336C436.396 154.969 436.1 155.508 435.748 155.953C435.402 156.404 434.992 156.744 434.518 156.973C434.043 157.207 433.501 157.324 432.892 157.324C432.599 157.324 432.344 157.307 432.127 157.271C431.91 157.242 431.726 157.21 431.573 157.175V155.522C431.696 155.552 431.852 155.578 432.039 155.602C432.227 155.625 432.42 155.637 432.619 155.637C432.988 155.637 433.308 155.563 433.577 155.417C433.847 155.271 434.075 155.062 434.263 154.793C434.45 154.529 434.605 154.228 434.729 153.888L435.071 152.974L431.187 143.271ZM447.279 143.086C448.434 143.086 449.359 143.508 450.057 144.352C450.76 145.195 451.111 146.449 451.111 148.113C451.111 149.215 450.947 150.144 450.619 150.899C450.297 151.649 449.843 152.218 449.257 152.604C448.677 152.985 448 153.176 447.227 153.176C446.734 153.176 446.307 153.111 445.943 152.982C445.58 152.854 445.27 152.687 445.012 152.481C444.754 152.271 444.537 152.042 444.361 151.796H444.238C444.268 152.03 444.294 152.291 444.317 152.578C444.347 152.859 444.361 153.117 444.361 153.352V157.315H442.287V143.271H443.975L444.265 144.615H444.361C444.543 144.34 444.763 144.085 445.021 143.851C445.284 143.616 445.601 143.432 445.97 143.297C446.345 143.156 446.781 143.086 447.279 143.086ZM446.726 144.773C446.157 144.773 445.7 144.888 445.354 145.116C445.015 145.339 444.766 145.676 444.607 146.127C444.455 146.578 444.373 147.144 444.361 147.823V148.113C444.361 148.834 444.435 149.446 444.581 149.95C444.733 150.448 444.982 150.829 445.328 151.093C445.68 151.351 446.154 151.479 446.752 151.479C447.256 151.479 447.672 151.342 448 151.066C448.334 150.791 448.583 150.398 448.747 149.889C448.911 149.379 448.993 148.778 448.993 148.087C448.993 147.038 448.806 146.224 448.431 145.644C448.062 145.063 447.493 144.773 446.726 144.773ZM457.378 143.086C458.245 143.086 458.989 143.265 459.61 143.622C460.231 143.979 460.709 144.486 461.043 145.143C461.377 145.799 461.544 146.584 461.544 147.498V148.605H455.049C455.072 149.549 455.324 150.275 455.805 150.785C456.291 151.295 456.971 151.55 457.844 151.55C458.465 151.55 459.021 151.491 459.514 151.374C460.012 151.251 460.524 151.072 461.052 150.838V152.517C460.565 152.745 460.07 152.912 459.566 153.018C459.062 153.123 458.459 153.176 457.756 153.176C456.801 153.176 455.96 152.991 455.233 152.622C454.513 152.247 453.947 151.69 453.537 150.952C453.133 150.214 452.931 149.297 452.931 148.201C452.931 147.111 453.115 146.186 453.484 145.424C453.854 144.662 454.372 144.082 455.04 143.684C455.708 143.285 456.487 143.086 457.378 143.086ZM457.378 144.642C456.728 144.642 456.2 144.853 455.796 145.274C455.397 145.696 455.163 146.314 455.093 147.129H459.522C459.517 146.643 459.435 146.212 459.276 145.837C459.124 145.462 458.89 145.169 458.573 144.958C458.263 144.747 457.864 144.642 457.378 144.642ZM470.271 140.15L469.92 144.791H468.593L468.25 140.15H470.271ZM483.859 153H481.267L474.974 142.743H474.895C474.918 143.089 474.938 143.455 474.956 143.842C474.979 144.229 474.997 144.627 475.009 145.037C475.026 145.447 475.041 145.863 475.053 146.285V153H473.137V140.15H475.712L481.996 150.337H482.058C482.046 150.038 482.031 149.695 482.014 149.309C481.996 148.922 481.979 148.523 481.961 148.113C481.949 147.697 481.94 147.296 481.935 146.909V140.15H483.859V153ZM490.899 143.086C491.767 143.086 492.511 143.265 493.132 143.622C493.753 143.979 494.23 144.486 494.564 145.143C494.898 145.799 495.065 146.584 495.065 147.498V148.605H488.57C488.594 149.549 488.846 150.275 489.326 150.785C489.812 151.295 490.492 151.55 491.365 151.55C491.986 151.55 492.543 151.491 493.035 151.374C493.533 151.251 494.046 151.072 494.573 150.838V152.517C494.087 152.745 493.592 152.912 493.088 153.018C492.584 153.123 491.98 153.176 491.277 153.176C490.322 153.176 489.481 152.991 488.755 152.622C488.034 152.247 487.469 151.69 487.059 150.952C486.654 150.214 486.452 149.297 486.452 148.201C486.452 147.111 486.637 146.186 487.006 145.424C487.375 144.662 487.894 144.082 488.562 143.684C489.229 143.285 490.009 143.086 490.899 143.086ZM490.899 144.642C490.249 144.642 489.722 144.853 489.317 145.274C488.919 145.696 488.685 146.314 488.614 147.129H493.044C493.038 146.643 492.956 146.212 492.798 145.837C492.646 145.462 492.411 145.169 492.095 144.958C491.784 144.747 491.386 144.642 490.899 144.642ZM500.172 157.324C498.854 157.324 497.843 157.087 497.14 156.612C496.437 156.138 496.085 155.473 496.085 154.617C496.085 154.02 496.272 153.513 496.647 153.097C497.022 152.687 497.559 152.402 498.256 152.244C497.992 152.127 497.764 151.945 497.57 151.699C497.383 151.447 497.289 151.169 497.289 150.864C497.289 150.501 497.392 150.19 497.597 149.933C497.802 149.675 498.109 149.426 498.52 149.186C498.01 148.969 497.6 148.617 497.289 148.131C496.984 147.639 496.832 147.062 496.832 146.399C496.832 145.696 496.981 145.099 497.28 144.606C497.579 144.108 498.016 143.73 498.59 143.473C499.164 143.209 499.858 143.077 500.673 143.077C500.849 143.077 501.039 143.089 501.244 143.112C501.455 143.13 501.648 143.153 501.824 143.183C502.006 143.206 502.144 143.232 502.237 143.262H505.604V144.413L503.951 144.721C504.109 144.943 504.235 145.198 504.329 145.485C504.423 145.767 504.47 146.074 504.47 146.408C504.47 147.416 504.121 148.21 503.424 148.79C502.732 149.364 501.777 149.651 500.559 149.651C500.266 149.64 499.981 149.616 499.706 149.581C499.495 149.71 499.334 149.854 499.223 150.012C499.111 150.164 499.056 150.337 499.056 150.53C499.056 150.688 499.111 150.817 499.223 150.917C499.334 151.011 499.498 151.081 499.715 151.128C499.938 151.175 500.207 151.198 500.523 151.198H502.202C503.269 151.198 504.083 151.424 504.646 151.875C505.208 152.326 505.489 152.988 505.489 153.861C505.489 154.969 505.032 155.821 504.118 156.419C503.204 157.022 501.889 157.324 500.172 157.324ZM500.251 155.874C500.972 155.874 501.578 155.804 502.07 155.663C502.562 155.522 502.935 155.32 503.187 155.057C503.438 154.799 503.564 154.491 503.564 154.134C503.564 153.817 503.485 153.574 503.327 153.404C503.169 153.234 502.932 153.117 502.615 153.053C502.299 152.988 501.906 152.956 501.438 152.956H499.908C499.527 152.956 499.19 153.015 498.897 153.132C498.604 153.255 498.376 153.431 498.212 153.659C498.054 153.888 497.975 154.163 497.975 154.485C497.975 154.931 498.171 155.273 498.563 155.514C498.962 155.754 499.524 155.874 500.251 155.874ZM500.655 148.298C501.259 148.298 501.707 148.134 502 147.806C502.293 147.472 502.439 147.003 502.439 146.399C502.439 145.743 502.287 145.251 501.982 144.923C501.684 144.595 501.238 144.431 500.646 144.431C500.066 144.431 499.624 144.598 499.319 144.932C499.021 145.266 498.871 145.761 498.871 146.417C498.871 147.009 499.021 147.472 499.319 147.806C499.624 148.134 500.069 148.298 500.655 148.298ZM511.193 143.086C512.424 143.086 513.353 143.358 513.979 143.903C514.612 144.448 514.929 145.298 514.929 146.452V153H513.461L513.065 151.62H512.995C512.72 151.972 512.436 152.262 512.143 152.49C511.85 152.719 511.51 152.889 511.123 153C510.742 153.117 510.276 153.176 509.726 153.176C509.146 153.176 508.627 153.07 508.17 152.859C507.713 152.643 507.353 152.314 507.089 151.875C506.825 151.436 506.693 150.879 506.693 150.205C506.693 149.203 507.065 148.45 507.81 147.946C508.56 147.442 509.69 147.164 511.202 147.111L512.89 147.05V146.54C512.89 145.866 512.731 145.386 512.415 145.099C512.104 144.812 511.665 144.668 511.097 144.668C510.61 144.668 510.139 144.738 509.682 144.879C509.225 145.02 508.779 145.192 508.346 145.397L507.678 143.938C508.152 143.687 508.691 143.481 509.295 143.323C509.904 143.165 510.537 143.086 511.193 143.086ZM512.881 148.351L511.624 148.395C510.593 148.43 509.869 148.605 509.453 148.922C509.037 149.238 508.829 149.672 508.829 150.223C508.829 150.703 508.973 151.055 509.26 151.277C509.547 151.494 509.925 151.603 510.394 151.603C511.108 151.603 511.7 151.4 512.169 150.996C512.644 150.586 512.881 149.985 512.881 149.194V148.351ZM521.441 151.506C521.711 151.506 521.978 151.482 522.241 151.436C522.505 151.383 522.745 151.321 522.962 151.251V152.815C522.733 152.915 522.438 153 522.074 153.07C521.711 153.141 521.333 153.176 520.94 153.176C520.39 153.176 519.895 153.085 519.455 152.903C519.016 152.716 518.667 152.396 518.409 151.945C518.151 151.494 518.022 150.87 518.022 150.073V144.844H516.695V143.921L518.119 143.191L518.796 141.108H520.097V143.271H522.883V144.844H520.097V150.047C520.097 150.539 520.22 150.905 520.466 151.146C520.712 151.386 521.037 151.506 521.441 151.506ZM527.005 143.271V153H524.939V143.271H527.005ZM525.985 139.544C526.302 139.544 526.574 139.629 526.803 139.799C527.037 139.969 527.154 140.262 527.154 140.678C527.154 141.088 527.037 141.381 526.803 141.557C526.574 141.727 526.302 141.812 525.985 141.812C525.657 141.812 525.379 141.727 525.15 141.557C524.928 141.381 524.816 141.088 524.816 140.678C524.816 140.262 524.928 139.969 525.15 139.799C525.379 139.629 525.657 139.544 525.985 139.544ZM532.19 153L528.49 143.271H530.679L532.683 148.983C532.812 149.347 532.929 149.739 533.034 150.161C533.14 150.583 533.213 150.938 533.254 151.225H533.324C533.365 150.926 533.444 150.568 533.562 150.152C533.679 149.73 533.799 149.341 533.922 148.983L535.926 143.271H538.105L534.405 153H532.19ZM543.458 143.086C544.325 143.086 545.069 143.265 545.69 143.622C546.312 143.979 546.789 144.486 547.123 145.143C547.457 145.799 547.624 146.584 547.624 147.498V148.605H541.129C541.152 149.549 541.404 150.275 541.885 150.785C542.371 151.295 543.051 151.55 543.924 151.55C544.545 151.55 545.102 151.491 545.594 151.374C546.092 151.251 546.604 151.072 547.132 150.838V152.517C546.646 152.745 546.15 152.912 545.646 153.018C545.143 153.123 544.539 153.176 543.836 153.176C542.881 153.176 542.04 152.991 541.313 152.622C540.593 152.247 540.027 151.69 539.617 150.952C539.213 150.214 539.011 149.297 539.011 148.201C539.011 147.111 539.195 146.186 539.564 145.424C539.934 144.662 540.452 144.082 541.12 143.684C541.788 143.285 542.567 143.086 543.458 143.086ZM543.458 144.642C542.808 144.642 542.28 144.853 541.876 145.274C541.478 145.696 541.243 146.314 541.173 147.129H545.603C545.597 146.643 545.515 146.212 545.356 145.837C545.204 145.462 544.97 145.169 544.653 144.958C544.343 144.747 543.944 144.642 543.458 144.642ZM551.676 140.15L551.324 144.791H549.997L549.654 140.15H551.676Z" fill="#222222"/>
<path d="M431.203 166.578V173.969C431.203 174.776 431.039 175.495 430.711 176.125C430.388 176.755 429.898 177.253 429.242 177.617C428.586 177.977 427.763 178.156 426.773 178.156C425.362 178.156 424.286 177.773 423.547 177.008C422.812 176.242 422.445 175.219 422.445 173.938V166.578H423.781V173.977C423.781 174.945 424.036 175.693 424.547 176.219C425.062 176.745 425.831 177.008 426.852 177.008C427.549 177.008 428.12 176.883 428.562 176.633C429.01 176.378 429.341 176.023 429.555 175.57C429.773 175.112 429.883 174.583 429.883 173.984V166.578H431.203ZM434.234 178V166.578H435.562V178H434.234ZM451.789 178H450.258L444.031 168.406H443.969C443.984 168.661 444.003 168.953 444.023 169.281C444.044 169.604 444.06 169.951 444.07 170.32C444.086 170.685 444.094 171.057 444.094 171.438V178H442.859V166.578H444.383L450.586 176.141H450.641C450.63 175.958 450.617 175.701 450.602 175.367C450.586 175.029 450.57 174.667 450.555 174.281C450.544 173.891 450.539 173.529 450.539 173.195V166.578H451.789V178ZM462.094 173.703C462.094 174.406 462.003 175.034 461.82 175.586C461.638 176.138 461.375 176.604 461.031 176.984C460.688 177.365 460.271 177.656 459.781 177.859C459.297 178.057 458.747 178.156 458.133 178.156C457.56 178.156 457.034 178.057 456.555 177.859C456.081 177.656 455.669 177.365 455.32 176.984C454.977 176.604 454.708 176.138 454.516 175.586C454.328 175.034 454.234 174.406 454.234 173.703C454.234 172.766 454.393 171.969 454.711 171.312C455.029 170.651 455.482 170.148 456.07 169.805C456.664 169.456 457.37 169.281 458.188 169.281C458.969 169.281 459.651 169.456 460.234 169.805C460.823 170.154 461.279 170.659 461.602 171.32C461.93 171.977 462.094 172.771 462.094 173.703ZM455.578 173.703C455.578 174.391 455.669 174.987 455.852 175.492C456.034 175.997 456.315 176.388 456.695 176.664C457.076 176.94 457.565 177.078 458.164 177.078C458.758 177.078 459.245 176.94 459.625 176.664C460.01 176.388 460.294 175.997 460.477 175.492C460.659 174.987 460.75 174.391 460.75 173.703C460.75 173.021 460.659 172.432 460.477 171.938C460.294 171.438 460.013 171.052 459.633 170.781C459.253 170.51 458.76 170.375 458.156 170.375C457.266 170.375 456.612 170.669 456.195 171.258C455.784 171.846 455.578 172.661 455.578 173.703ZM467.102 177.094C467.315 177.094 467.534 177.076 467.758 177.039C467.982 177.003 468.164 176.958 468.305 176.906V177.914C468.154 177.982 467.943 178.039 467.672 178.086C467.406 178.133 467.146 178.156 466.891 178.156C466.438 178.156 466.026 178.078 465.656 177.922C465.286 177.76 464.99 177.49 464.766 177.109C464.547 176.729 464.438 176.203 464.438 175.531V170.453H463.219V169.82L464.445 169.312L464.961 167.453H465.742V169.438H468.25V170.453H465.742V175.492C465.742 176.029 465.865 176.43 466.109 176.695C466.359 176.961 466.69 177.094 467.102 177.094ZM471.336 169.438V178H470.039V169.438H471.336ZM470.703 166.234C470.917 166.234 471.099 166.305 471.25 166.445C471.406 166.581 471.484 166.794 471.484 167.086C471.484 167.372 471.406 167.586 471.25 167.727C471.099 167.867 470.917 167.938 470.703 167.938C470.479 167.938 470.292 167.867 470.141 167.727C469.995 167.586 469.922 167.372 469.922 167.086C469.922 166.794 469.995 166.581 470.141 166.445C470.292 166.305 470.479 166.234 470.703 166.234ZM477.898 170.453H475.766V178H474.469V170.453H472.953V169.828L474.469 169.398V168.828C474.469 168.109 474.576 167.526 474.789 167.078C475.003 166.625 475.312 166.292 475.719 166.078C476.125 165.865 476.62 165.758 477.203 165.758C477.531 165.758 477.831 165.786 478.102 165.844C478.378 165.901 478.62 165.966 478.828 166.039L478.492 167.062C478.315 167.005 478.115 166.953 477.891 166.906C477.672 166.854 477.448 166.828 477.219 166.828C476.724 166.828 476.357 166.99 476.117 167.312C475.883 167.63 475.766 168.13 475.766 168.812V169.438H477.898V170.453ZM480.766 169.438V178H479.469V169.438H480.766ZM480.133 166.234C480.346 166.234 480.529 166.305 480.68 166.445C480.836 166.581 480.914 166.794 480.914 167.086C480.914 167.372 480.836 167.586 480.68 167.727C480.529 167.867 480.346 167.938 480.133 167.938C479.909 167.938 479.721 167.867 479.57 167.727C479.424 167.586 479.352 167.372 479.352 167.086C479.352 166.794 479.424 166.581 479.57 166.445C479.721 166.305 479.909 166.234 480.133 166.234ZM486.938 178.156C486.167 178.156 485.487 177.997 484.898 177.68C484.31 177.362 483.852 176.878 483.523 176.227C483.195 175.576 483.031 174.755 483.031 173.766C483.031 172.729 483.203 171.883 483.547 171.227C483.896 170.565 484.375 170.076 484.984 169.758C485.594 169.44 486.286 169.281 487.062 169.281C487.49 169.281 487.901 169.326 488.297 169.414C488.698 169.497 489.026 169.604 489.281 169.734L488.891 170.82C488.63 170.716 488.328 170.622 487.984 170.539C487.646 170.456 487.328 170.414 487.031 170.414C486.438 170.414 485.943 170.542 485.547 170.797C485.156 171.052 484.862 171.427 484.664 171.922C484.471 172.417 484.375 173.026 484.375 173.75C484.375 174.443 484.469 175.034 484.656 175.523C484.849 176.013 485.133 176.388 485.508 176.648C485.888 176.904 486.362 177.031 486.93 177.031C487.383 177.031 487.792 176.984 488.156 176.891C488.521 176.792 488.852 176.677 489.148 176.547V177.703C488.862 177.849 488.542 177.961 488.188 178.039C487.839 178.117 487.422 178.156 486.938 178.156ZM494.383 169.297C495.404 169.297 496.161 169.526 496.656 169.984C497.151 170.443 497.398 171.174 497.398 172.18V178H496.453L496.203 176.734H496.141C495.901 177.047 495.651 177.31 495.391 177.523C495.13 177.732 494.828 177.891 494.484 178C494.146 178.104 493.729 178.156 493.234 178.156C492.714 178.156 492.25 178.065 491.844 177.883C491.443 177.701 491.125 177.424 490.891 177.055C490.661 176.685 490.547 176.216 490.547 175.648C490.547 174.794 490.885 174.138 491.562 173.68C492.24 173.221 493.271 172.971 494.656 172.93L496.133 172.867V172.344C496.133 171.604 495.974 171.086 495.656 170.789C495.339 170.492 494.891 170.344 494.312 170.344C493.865 170.344 493.438 170.409 493.031 170.539C492.625 170.669 492.24 170.823 491.875 171L491.477 170.016C491.862 169.818 492.305 169.648 492.805 169.508C493.305 169.367 493.831 169.297 494.383 169.297ZM496.117 173.781L494.812 173.836C493.745 173.878 492.992 174.052 492.555 174.359C492.117 174.667 491.898 175.102 491.898 175.664C491.898 176.154 492.047 176.516 492.344 176.75C492.641 176.984 493.034 177.102 493.523 177.102C494.284 177.102 494.906 176.891 495.391 176.469C495.875 176.047 496.117 175.414 496.117 174.57V173.781ZM502.836 177.094C503.049 177.094 503.268 177.076 503.492 177.039C503.716 177.003 503.898 176.958 504.039 176.906V177.914C503.888 177.982 503.677 178.039 503.406 178.086C503.141 178.133 502.88 178.156 502.625 178.156C502.172 178.156 501.76 178.078 501.391 177.922C501.021 177.76 500.724 177.49 500.5 177.109C500.281 176.729 500.172 176.203 500.172 175.531V170.453H498.953V169.82L500.18 169.312L500.695 167.453H501.477V169.438H503.984V170.453H501.477V175.492C501.477 176.029 501.599 176.43 501.844 176.695C502.094 176.961 502.424 177.094 502.836 177.094ZM507.07 169.438V178H505.773V169.438H507.07ZM506.438 166.234C506.651 166.234 506.833 166.305 506.984 166.445C507.141 166.581 507.219 166.794 507.219 167.086C507.219 167.372 507.141 167.586 506.984 167.727C506.833 167.867 506.651 167.938 506.438 167.938C506.214 167.938 506.026 167.867 505.875 167.727C505.729 167.586 505.656 167.372 505.656 167.086C505.656 166.794 505.729 166.581 505.875 166.445C506.026 166.305 506.214 166.234 506.438 166.234ZM517.203 173.703C517.203 174.406 517.112 175.034 516.93 175.586C516.747 176.138 516.484 176.604 516.141 176.984C515.797 177.365 515.38 177.656 514.891 177.859C514.406 178.057 513.857 178.156 513.242 178.156C512.669 178.156 512.143 178.057 511.664 177.859C511.19 177.656 510.779 177.365 510.43 176.984C510.086 176.604 509.818 176.138 509.625 175.586C509.438 175.034 509.344 174.406 509.344 173.703C509.344 172.766 509.503 171.969 509.82 171.312C510.138 170.651 510.591 170.148 511.18 169.805C511.773 169.456 512.479 169.281 513.297 169.281C514.078 169.281 514.76 169.456 515.344 169.805C515.932 170.154 516.388 170.659 516.711 171.32C517.039 171.977 517.203 172.771 517.203 173.703ZM510.688 173.703C510.688 174.391 510.779 174.987 510.961 175.492C511.143 175.997 511.424 176.388 511.805 176.664C512.185 176.94 512.674 177.078 513.273 177.078C513.867 177.078 514.354 176.94 514.734 176.664C515.12 176.388 515.404 175.997 515.586 175.492C515.768 174.987 515.859 174.391 515.859 173.703C515.859 173.021 515.768 172.432 515.586 171.938C515.404 171.438 515.122 171.052 514.742 170.781C514.362 170.51 513.87 170.375 513.266 170.375C512.375 170.375 511.721 170.669 511.305 171.258C510.893 171.846 510.688 172.661 510.688 173.703ZM523.5 169.281C524.516 169.281 525.284 169.531 525.805 170.031C526.326 170.526 526.586 171.323 526.586 172.422V178H525.305V172.508C525.305 171.794 525.141 171.26 524.812 170.906C524.49 170.552 523.992 170.375 523.32 170.375C522.372 170.375 521.706 170.643 521.32 171.18C520.935 171.716 520.742 172.495 520.742 173.516V178H519.445V169.438H520.492L520.688 170.672H520.758C520.94 170.37 521.172 170.117 521.453 169.914C521.734 169.706 522.049 169.549 522.398 169.445C522.747 169.336 523.115 169.281 523.5 169.281Z" fill="#222222"/>
<path d="M676 153.5L666 163.5M666 153.5L676 163.5" stroke="#222222" stroke-width="1.6" stroke-linecap="round" stroke-linejoin="round"/>
</g>
<defs>
<filter id="filter0_d_811_381" x="0" y="0" width="378" height="133" filterUnits="userSpaceOnUse" color-interpolation-filters="sRGB">
<feFlood flood-opacity="0" result="BackgroundImageFix"/>
<feColorMatrix in="SourceAlpha" type="matrix" values="0 0 0 0 0 0 0 0 0 0 0 0 0 0 0 0 0 0 127 0" result="hardAlpha"/>
<feOffset dy="7"/>
<feGaussianBlur stdDeviation="14.5"/>
<feComposite in2="hardAlpha" operator="out"/>
<feColorMatrix type="matrix" values="0 0 0 0 0.392157 0 0 0 0 0.392157 0 0 0 0 0.435294 0 0 0 0.2 0"/>
<feBlend mode="normal" in2="BackgroundImageFix" result="effect1_dropShadow_811_381"/>
<feBlend mode="normal" in="SourceGraphic" in2="effect1_dropShadow_811_381" result="shape"/>
</filter>
<filter id="filter1_d_811_381" x="0" y="99" width="378" height="133" filterUnits="userSpaceOnUse" color-interpolation-filters="sRGB">
<feFlood flood-opacity="0" result="BackgroundImageFix"/>
<feColorMatrix in="SourceAlpha" type="matrix" values="0 0 0 0 0 0 0 0 0 0 0 0 0 0 0 0 0 0 127 0" result="hardAlpha"/>
<feOffset dy="7"/>
<feGaussianBlur stdDeviation="14.5"/>
<feComposite in2="hardAlpha" operator="out"/>
<feColorMatrix type="matrix" values="0 0 0 0 0.392157 0 0 0 0 0.392157 0 0 0 0 0.435294 0 0 0 0.2 0"/>
<feBlend mode="normal" in2="BackgroundImageFix" result="effect1_dropShadow_811_381"/>
<feBlend mode="normal" in="SourceGraphic" in2="effect1_dropShadow_811_381" result="shape"/>
</filter>
<filter id="filter2_d_811_381" x="344" y="0" width="378" height="133" filterUnits="userSpaceOnUse" color-interpolation-filters="sRGB">
<feFlood flood-opacity="0" result="BackgroundImageFix"/>
<feColorMatrix in="SourceAlpha" type="matrix" values="0 0 0 0 0 0 0 0 0 0 0 0 0 0 0 0 0 0 127 0" result="hardAlpha"/>
<feOffset dy="7"/>
<feGaussianBlur stdDeviation="14.5"/>
<feComposite in2="hardAlpha" operator="out"/>
<feColorMatrix type="matrix" values="0 0 0 0 0.392157 0 0 0 0 0.392157 0 0 0 0 0.435294 0 0 0 0.2 0"/>
<feBlend mode="normal" in2="BackgroundImageFix" result="effect1_dropShadow_811_381"/>
<feBlend mode="normal" in="SourceGraphic" in2="effect1_dropShadow_811_381" result="shape"/>
</filter>
<filter id="filter3_d_811_381" x="344" y="99" width="378" height="133" filterUnits="userSpaceOnUse" color-interpolation-filters="sRGB">
<feFlood flood-opacity="0" result="BackgroundImageFix"/>
<feColorMatrix in="SourceAlpha" type="matrix" values="0 0 0 0 0 0 0 0 0 0 0 0 0 0 0 0 0 0 127 0" result="hardAlpha"/>
<feOffset dy="7"/>
<feGaussianBlur stdDeviation="14.5"/>
<feComposite in2="hardAlpha" operator="out"/>
<feColorMatrix type="matrix" values="0 0 0 0 0.392157 0 0 0 0 0.392157 0 0 0 0 0.435294 0 0 0 0.2 0"/>
<feBlend mode="normal" in2="BackgroundImageFix" result="effect1_dropShadow_811_381"/>
<feBlend mode="normal" in="SourceGraphic" in2="effect1_dropShadow_811_381" result="shape"/>
</filter>
</defs>
</svg>
