<svg width="200" height="200" viewBox="0 0 200 200" fill="none" xmlns="http://www.w3.org/2000/svg">
<path d="M74.0444 3.99991C71.0222 5.33325 70.2222 6.75547 70.2222 11.2888C70.2222 14.3999 70.2222 14.4888 71.9999 12.8888C73.5999 11.3777 74.0444 11.4666 82.3999 14.7555L91.111 18.2221L83.9999 18.6666C77.0666 19.111 76.8888 19.1999 76.6222 21.511C76.3555 23.8221 76.4444 23.911 79.2888 23.111C85.9555 21.1555 92.4444 25.8666 92.4444 32.6221C92.4444 38.5777 85.9555 43.6444 80.2666 42.2221C79.0222 41.9555 75.5555 39.4666 72.6222 36.8888C65.9555 30.8444 61.1555 28.4444 55.6444 28.4444C49.8666 28.4444 45.0666 31.111 42.2222 35.911C39.4666 40.711 38.6666 43.1999 36.8888 53.6888C35.6444 60.7999 30.5777 81.7777 28.7999 86.6666C28.4444 87.6444 31.2888 85.4221 35.111 81.7777C39.1999 77.7777 41.7777 75.8221 41.511 76.8888C35.9999 97.4221 32.4444 106.844 27.2888 114.133L25.511 116.622L27.6444 115.555C28.7999 114.933 31.6444 113.067 33.9555 111.467C36.3555 109.778 38.2222 108.622 38.2222 108.889C38.2222 109.155 36.4444 113.244 34.311 117.955C29.4222 128.8 24.1777 138.311 19.911 144.178C16.7999 148.444 16.711 148.622 18.7555 148C22.8444 146.844 30.5777 140.889 35.0222 135.378C37.511 132.355 39.6444 130.044 39.8222 130.222C39.9999 130.4 38.2222 134.578 35.8222 139.467C33.4222 144.444 31.6444 148.444 31.8222 148.444C34.0444 148.444 46.5777 136.8 49.8666 131.644C51.1999 129.511 51.1999 129.511 52.3555 134.4C53.8666 140.8 52.8888 144.355 49.4222 144.711C44.8888 145.244 45.511 148.178 51.7333 155.644C53.5999 157.867 55.111 160 55.111 160.355C55.111 160.711 54.311 162.133 53.3333 163.555L51.6444 165.955L47.2888 163.822C43.1999 161.778 42.6666 161.778 39.7333 162.933C36.4444 164.355 34.6666 166.667 34.6666 169.511C34.6666 171.022 34.0444 171.2 28.8888 170.844C21.5999 170.4 17.9555 171.733 16.3555 175.555C13.2444 183.111 21.511 197.333 29.0666 197.333C31.1999 197.333 31.111 197.244 27.9999 193.244C26.311 190.933 24.8888 188.8 24.8888 188.355C24.8888 183.2 30.311 183.644 44.3555 189.955C54.311 194.489 56.3555 195.022 62.7555 195.378C69.3333 195.733 70.0444 195.555 72.4444 193.511C74.9333 191.378 75.0222 191.2 74.0444 187.022C73.511 184.622 73.2444 182.489 73.4222 182.222C73.6888 182.044 75.111 182.4 76.711 183.022C87.4666 187.555 91.1999 188.355 99.9999 188.355C108.8 188.355 112.533 187.555 123.289 183.022C124.889 182.4 126.311 182.044 126.578 182.222C126.755 182.489 126.489 184.622 125.955 187.022C124.978 191.2 125.067 191.378 127.467 193.422C129.422 195.2 130.844 195.555 135.467 195.555C142.222 195.555 146.222 194.4 157.955 188.978C165.155 185.689 167.911 184.8 170.844 185.067C175.911 185.422 176.267 187.644 172 193.155C169.067 196.978 168.978 197.333 170.667 197.333C175.822 197.333 181.067 192 183.555 184.267C185.333 178.755 184.8 175.822 181.511 172.711C179.289 170.667 178.578 170.489 172.267 170.844C165.6 171.111 165.333 171.022 165.333 169.155C165.333 166.667 161.955 163.022 159.022 162.311C157.511 161.955 155.289 162.489 152.622 163.822L148.533 165.955L146.755 163.467C145.689 162.044 144.889 160.711 144.889 160.355C144.889 160.089 146.4 157.955 148.355 155.644C154.4 148.355 155.2 144.889 150.755 144.889C147.555 144.889 146.044 140 147.555 134.578C148.178 132.444 148.889 130.667 149.244 130.755C149.511 130.755 151.378 132.889 153.422 135.378C156.622 139.467 166.578 148.444 168 148.444C168.267 148.444 167.022 145.244 165.155 141.422C163.289 137.511 161.333 133.244 160.889 131.822C160.089 129.6 160.355 129.778 162.844 132.889C167.644 138.933 174.133 144.711 178.311 146.667C180.533 147.733 182.489 148.444 182.667 148.267C182.844 148.089 181.155 145.333 178.933 142.222C175.289 137.067 161.867 110.933 161.778 108.978C161.778 108.622 163.111 109.244 164.711 110.4C166.222 111.555 169.067 113.422 170.844 114.489L174.044 116.533L170.133 109.6C168 105.867 165.422 100.355 164.444 97.4221C162.4 91.0221 158.222 75.5555 158.578 75.5555C158.755 75.5555 161.955 78.6666 165.689 82.3999L172.444 89.3332L171.111 85.3332C168.8 78.7555 164.622 61.8666 163.111 53.4221C162.4 49.0666 161.155 43.7332 160.444 41.6888C157.422 33.1555 151.2 28.4444 142.933 28.4444C137.067 28.4444 133.689 30.3999 129.689 35.9999C126.489 40.4444 123.2 42.6666 119.822 42.6666C117.422 42.6666 114.133 40.6221 112.889 38.311C112.178 36.7999 112.355 36.711 115.911 37.0666C119.733 37.511 123.555 36.2666 123.555 34.6666C123.555 34.1332 122.844 33.7777 121.955 33.7777C120.089 33.7777 116.711 30.5777 117.6 29.5999C117.955 29.3332 119.022 28.6221 120.178 28.0888C122.755 26.7555 123.111 25.2444 120.978 24.6221C120.089 24.4444 118.222 22.5777 116.978 20.5332C115.644 18.5777 114.222 16.8888 113.778 16.8888C113.244 16.8888 112.889 16.4444 112.889 15.9999C112.889 15.4666 113.6 15.111 114.489 15.111C115.467 15.111 116.889 14.311 117.778 13.3332C119.555 11.3777 119.289 11.1999 113.689 10.311C111.911 9.95547 107.2 8.17769 103.2 6.22214C94.8444 2.22214 91.3777 1.77769 89.4222 4.53325C88.1777 6.39991 88.0888 6.39991 83.3777 4.8888C80.7999 4.0888 78.2222 3.2888 77.6888 3.11103C77.2444 3.02214 75.5555 3.37769 74.0444 3.99991ZM147.378 87.7332C147.022 123.733 146.933 126.044 145.067 131.555C140.267 146.133 128.089 158.311 113.867 162.755C105.867 165.244 94.1333 165.244 86.1333 162.755C71.911 158.311 59.4666 145.867 55.111 131.644C53.4222 126.4 53.3333 123.289 53.3333 87.911V49.7777H100.533H147.733L147.378 87.7332Z" fill="#004A98"/>
<path d="M66.6666 93.9554C67.1111 121.689 67.1999 123.289 69.0666 127.378C71.5555 132.8 76.3555 138.844 77.6888 138.4C78.2222 138.133 78.5777 137.6 78.4888 137.067C78.3999 136.622 80.4444 134.044 83.0222 131.467C87.4666 127.022 87.9111 126.222 88.4444 121.422C88.8888 117.955 88.7111 114.133 87.9999 110.755C85.9555 100.889 85.9555 97.4221 87.9111 92.8887C88.9777 90.4887 89.7777 86.4887 89.9555 83.0221C90.1333 77.3332 90.9333 75.7332 91.8222 79.1109C92.4444 81.4221 94.7555 82.3109 96.5333 80.7998C97.4222 80.0887 97.8666 78.3998 97.6888 76.0887C97.3333 69.2443 97.5111 68.7109 100.267 68.9776C101.6 69.0665 103.2 69.1554 103.911 69.2443C104.889 69.3332 105.067 70.3998 104.622 74.2221C104.178 79.0221 104.178 79.1109 108.089 83.0221C113.333 88.4443 114.044 90.4887 112.8 97.0665C112 101.155 112 103.733 112.8 108.355C113.6 112.622 113.6 115.022 112.978 116.8C111.2 121.333 111.733 126.667 114.311 129.689C115.556 131.2 117.156 132.444 117.867 132.444C118.578 132.444 119.822 133.867 120.533 135.555C121.244 137.244 122.133 138.667 122.578 138.667C123.733 138.667 128.267 132.711 130.489 128.444C133.511 122.311 134.222 115.467 134.222 89.5998V64.8887H100.267H66.2222L66.6666 93.9554Z" fill="#004A98"/>
</svg>
