<svg xmlns="http://www.w3.org/2000/svg" version="1.1" xmlns:xlink="http://www.w3.org/1999/xlink" width="150" height="150"><svg width="150" height="150" viewBox="0 0 150 150" fill="none" xmlns="http://www.w3.org/2000/svg">
<path d="M55.5335 3.00001C53.2669 4.00001 52.6669 5.06668 52.6669 8.46667C52.6669 10.8 52.6669 10.8667 54.0002 9.66667C55.2002 8.53334 55.5335 8.60001 61.8002 11.0667L68.3335 13.6667L63.0002 14C57.8002 14.3333 57.6669 14.4 57.4669 16.1333C57.2669 17.8667 57.3335 17.9333 59.4669 17.3333C64.4669 15.8667 69.3335 19.4 69.3335 24.4667C69.3335 28.9333 64.4669 32.7333 60.2002 31.6667C59.2669 31.4667 56.6669 29.6 54.4669 27.6667C49.4669 23.1333 45.8669 21.3333 41.7335 21.3333C37.4002 21.3333 33.8002 23.3333 31.6669 26.9333C29.6002 30.5333 29.0002 32.4 27.6669 40.2667C26.7335 45.6 22.9335 61.3333 21.6002 65C21.3335 65.7333 23.4669 64.0667 26.3335 61.3333C29.4002 58.3333 31.3335 56.8667 31.1335 57.6667C27.0002 73.0667 24.3335 80.1333 20.4669 85.6L19.1335 87.4667L20.7335 86.6667C21.6002 86.2 23.7335 84.8 25.4669 83.6C27.2669 82.3333 28.6669 81.4667 28.6669 81.6667C28.6669 81.8667 27.3335 84.9333 25.7335 88.4667C22.0669 96.6 18.1335 103.733 14.9335 108.133C12.6002 111.333 12.5335 111.467 14.0669 111C17.1335 110.133 22.9335 105.667 26.2669 101.533C28.1335 99.2667 29.7335 97.5333 29.8669 97.6667C30.0002 97.8 28.6669 100.933 26.8669 104.6C25.0669 108.333 23.7335 111.333 23.8669 111.333C25.5335 111.333 34.9335 102.6 37.4002 98.7333C38.4002 97.1333 38.4002 97.1333 39.2669 100.8C40.4002 105.6 39.6669 108.267 37.0669 108.533C33.6669 108.933 34.1335 111.133 38.8002 116.733C40.2002 118.4 41.3335 120 41.3335 120.267C41.3335 120.533 40.7335 121.6 40.0002 122.667L38.7335 124.467L35.4669 122.867C32.4002 121.333 32.0002 121.333 29.8002 122.2C27.3335 123.267 26.0002 125 26.0002 127.133C26.0002 128.267 25.5335 128.4 21.6669 128.133C16.2002 127.8 13.4669 128.8 12.2669 131.667C9.93353 137.333 16.1335 148 21.8002 148C23.4002 148 23.3335 147.933 21.0002 144.933C19.7335 143.2 18.6669 141.6 18.6669 141.267C18.6669 137.4 22.7335 137.733 33.2669 142.467C40.7335 145.867 42.2669 146.267 47.0669 146.533C52.0002 146.8 52.5335 146.667 54.3335 145.133C56.2002 143.533 56.2669 143.4 55.5335 140.267C55.1335 138.467 54.9335 136.867 55.0669 136.667C55.2669 136.533 56.3335 136.8 57.5335 137.267C65.6002 140.667 68.4002 141.267 75.0002 141.267C81.6002 141.267 84.4002 140.667 92.4669 137.267C93.6669 136.8 94.7335 136.533 94.9335 136.667C95.0669 136.867 94.8669 138.467 94.4669 140.267C93.7335 143.4 93.8002 143.533 95.6002 145.067C97.0669 146.4 98.1335 146.667 101.6 146.667C106.667 146.667 109.667 145.8 118.467 141.733C123.867 139.267 125.934 138.6 128.134 138.8C131.934 139.067 132.2 140.733 129 144.867C126.8 147.733 126.734 148 128 148C131.867 148 135.8 144 137.667 138.2C139 134.067 138.6 131.867 136.134 129.533C134.467 128 133.934 127.867 129.2 128.133C124.2 128.333 124 128.267 124 126.867C124 125 121.467 122.267 119.267 121.733C118.134 121.467 116.467 121.867 114.467 122.867L111.4 124.467L110.067 122.6C109.267 121.533 108.667 120.533 108.667 120.267C108.667 120.067 109.8 118.467 111.267 116.733C115.8 111.267 116.4 108.667 113.067 108.667C110.667 108.667 109.534 105 110.667 100.933C111.134 99.3333 111.667 98 111.934 98.0667C112.134 98.0667 113.534 99.6667 115.067 101.533C117.467 104.6 124.934 111.333 126 111.333C126.2 111.333 125.267 108.933 123.867 106.067C122.467 103.133 121 99.9333 120.667 98.8667C120.067 97.2 120.267 97.3333 122.134 99.6667C125.734 104.2 130.6 108.533 133.734 110C135.4 110.8 136.867 111.333 137 111.2C137.134 111.067 135.867 109 134.2 106.667C131.467 102.8 121.4 83.2 121.334 81.7333C121.334 81.4667 122.334 81.9333 123.534 82.8C124.667 83.6667 126.8 85.0667 128.134 85.8667L130.534 87.4L127.6 82.2C126 79.4 124.067 75.2667 123.334 73.0667C121.8 68.2667 118.667 56.6667 118.934 56.6667C119.067 56.6667 121.467 59 124.267 61.8L129.334 67L128.334 64C126.6 59.0667 123.467 46.4 122.334 40.0667C121.8 36.8 120.867 32.8 120.334 31.2667C118.067 24.8667 113.4 21.3333 107.2 21.3333C102.8 21.3333 100.267 22.8 97.2669 27C94.8669 30.3333 92.4002 32 89.8669 32C88.0669 32 85.6002 30.4667 84.6669 28.7333C84.1335 27.6 84.2669 27.5333 86.9335 27.8C89.8002 28.1333 92.6669 27.2 92.6669 26C92.6669 25.6 92.1335 25.3333 91.4669 25.3333C90.0669 25.3333 87.5335 22.9333 88.2002 22.2C88.4669 22 89.2669 21.4667 90.1335 21.0667C92.0669 20.0667 92.3335 18.9333 90.7335 18.4667C90.0669 18.3333 88.6669 16.9333 87.7335 15.4C86.7335 13.9333 85.6669 12.6667 85.3335 12.6667C84.9335 12.6667 84.6669 12.3333 84.6669 12C84.6669 11.6 85.2002 11.3333 85.8669 11.3333C86.6002 11.3333 87.6669 10.7333 88.3335 10C89.6669 8.53334 89.4669 8.40001 85.2669 7.73334C83.9335 7.46668 80.4002 6.13334 77.4002 4.66668C71.1335 1.66668 68.5335 1.33334 67.0669 3.40001C66.1335 4.80001 66.0669 4.80001 62.5335 3.66668C60.6002 3.06668 58.6669 2.46668 58.2669 2.33334C57.9335 2.26668 56.6669 2.53334 55.5335 3.00001ZM110.534 65.8C110.267 92.8 110.2 94.5333 108.8 98.6667C105.2 109.6 96.0669 118.733 85.4002 122.067C79.4002 123.933 70.6002 123.933 64.6002 122.067C53.9335 118.733 44.6002 109.4 41.3335 98.7333C40.0669 94.8 40.0002 92.4667 40.0002 65.9333V37.3333H75.4002H110.8L110.534 65.8Z" fill="#00356C"></path>
<path d="M50.0003 70.4667C50.3337 91.2667 50.4003 92.4667 51.8003 95.5333C53.667 99.6 57.267 104.133 58.267 103.8C58.667 103.6 58.9337 103.2 58.867 102.8C58.8003 102.467 60.3337 100.533 62.267 98.6C65.6003 95.2667 65.9337 94.6667 66.3337 91.0667C66.667 88.4667 66.5337 85.6 66.0003 83.0667C64.467 75.6667 64.467 73.0667 65.9337 69.6667C66.7337 67.8667 67.3337 64.8667 67.467 62.2667C67.6003 58 68.2003 56.8 68.867 59.3333C69.3337 61.0667 71.067 61.7333 72.4003 60.6C73.067 60.0667 73.4003 58.8 73.267 57.0667C73.0003 51.9333 73.1337 51.5333 75.2003 51.7333C76.2003 51.8 77.4003 51.8667 77.9337 51.9333C78.667 52 78.8003 52.8 78.467 55.6667C78.1337 59.2667 78.1337 59.3333 81.067 62.2667C85.0003 66.3333 85.5337 67.8667 84.6003 72.8C84.0003 75.8667 84.0003 77.8 84.6003 81.2667C85.2003 84.4667 85.2003 86.2667 84.7337 87.6C83.4003 91 83.8003 95 85.7337 97.2667C86.667 98.4 87.867 99.3333 88.4003 99.3333C88.9337 99.3333 89.867 100.4 90.4003 101.667C90.9337 102.933 91.6003 104 91.9337 104C92.8003 104 96.2003 99.5333 97.867 96.3333C100.134 91.7333 100.667 86.6 100.667 67.2V48.6667H75.2003H49.667L50.0003 70.4667Z" fill="#00356C"></path>
</svg><style>@media (prefers-color-scheme: light) { :root { filter: contrast(1) brightness(0.1); } }
@media (prefers-color-scheme: dark) { :root { filter: none; } }
</style></svg>