<svg width="44" height="44" viewBox="0 0 44 44" fill="none" xmlns="http://www.w3.org/2000/svg">
<path d="M16.2898 0.879997C15.6249 1.17333 15.4489 1.48622 15.4489 2.48355C15.4489 3.168 15.4489 3.18755 15.84 2.83555C16.192 2.50311 16.2898 2.52266 18.128 3.24622L20.0444 4.00889L18.48 4.10666C16.9547 4.20444 16.9156 4.224 16.8569 4.73244C16.7982 5.24089 16.8178 5.26044 17.4436 5.08444C18.9102 4.65422 20.3378 5.69066 20.3378 7.17689C20.3378 8.48711 18.9102 9.60177 17.6587 9.28889C17.3849 9.23022 16.6222 8.68266 15.9769 8.11555C14.5102 6.78577 13.4542 6.25777 12.2418 6.25777C10.9707 6.25777 9.91467 6.84444 9.28889 7.90044C8.68267 8.95644 8.50667 9.504 8.11556 11.8116C7.84178 13.376 6.72712 17.9911 6.336 19.0667C6.25778 19.2818 6.88356 18.7929 7.72445 17.9911C8.624 17.1111 9.19112 16.6809 9.13245 16.9156C7.92 21.4329 7.13778 23.5058 6.00356 25.1093L5.61245 25.6569L6.08178 25.4222C6.336 25.2853 6.96178 24.8747 7.47023 24.5227C7.99823 24.1511 8.40889 23.8969 8.40889 23.9556C8.40889 24.0142 8.01778 24.9138 7.54845 25.9502C6.47289 28.336 5.31912 30.4284 4.38045 31.7191C3.696 32.6578 3.67645 32.6969 4.12623 32.56C5.02578 32.3058 6.72712 30.9956 7.70489 29.7831C8.25245 29.1182 8.72178 28.6098 8.76089 28.6489C8.8 28.688 8.40889 29.6071 7.88089 30.6827C7.35289 31.7778 6.96178 32.6578 7.00089 32.6578C7.48978 32.6578 10.2471 30.096 10.9707 28.9618C11.264 28.4924 11.264 28.4924 11.5182 29.568C11.8507 30.976 11.6356 31.7582 10.8729 31.8364C9.87556 31.9538 10.0124 32.5991 11.3813 34.2418C11.792 34.7307 12.1244 35.2 12.1244 35.2782C12.1244 35.3564 11.9484 35.6693 11.7333 35.9822L11.3618 36.5102L10.4036 36.0409C9.504 35.5911 9.38667 35.5911 8.74134 35.8453C8.01778 36.1582 7.62667 36.6667 7.62667 37.2924C7.62667 37.6249 7.48978 37.664 6.35556 37.5858C4.752 37.488 3.95023 37.7813 3.59823 38.6222C2.91378 40.2844 4.73245 43.4133 6.39467 43.4133C6.864 43.4133 6.84445 43.3938 6.16 42.5138C5.78845 42.0053 5.47556 41.536 5.47556 41.4382C5.47556 40.304 6.66845 40.4018 9.75823 41.7902C11.9484 42.7876 12.3982 42.9049 13.8062 42.9831C15.2533 43.0613 15.4098 43.0222 15.9378 42.5724C16.4853 42.1031 16.5049 42.064 16.2898 41.1449C16.1724 40.6169 16.1138 40.1476 16.1529 40.0889C16.2116 40.0498 16.5244 40.128 16.8764 40.2649C19.2427 41.2622 20.064 41.4382 22 41.4382C23.936 41.4382 24.7573 41.2622 27.1236 40.2649C27.4756 40.128 27.7884 40.0498 27.8471 40.0889C27.8862 40.1476 27.8276 40.6169 27.7102 41.1449C27.4951 42.064 27.5147 42.1031 28.0427 42.5529C28.4729 42.944 28.7858 43.0222 29.8027 43.0222C31.2889 43.0222 32.1689 42.768 34.7502 41.5751C36.3342 40.8516 36.9404 40.656 37.5858 40.7147C38.7004 40.7929 38.7787 41.2818 37.84 42.4942C37.1947 43.3351 37.1751 43.4133 37.5467 43.4133C38.6809 43.4133 39.8347 42.24 40.3822 40.5387C40.7733 39.3262 40.656 38.6809 39.9324 37.9964C39.4436 37.5467 39.2871 37.5076 37.8987 37.5858C36.432 37.6444 36.3733 37.6249 36.3733 37.2142C36.3733 36.6667 35.6302 35.8649 34.9849 35.7084C34.6524 35.6302 34.1636 35.7476 33.5769 36.0409L32.6773 36.5102L32.2862 35.9627C32.0516 35.6498 31.8756 35.3564 31.8756 35.2782C31.8756 35.2196 32.208 34.7502 32.6382 34.2418C33.968 32.6382 34.144 31.8756 33.1662 31.8756C32.4622 31.8756 32.1298 30.8 32.4622 29.6071C32.5991 29.1378 32.7556 28.7467 32.8338 28.7662C32.8924 28.7662 33.3031 29.2356 33.7529 29.7831C34.4569 30.6827 36.6471 32.6578 36.96 32.6578C37.0187 32.6578 36.7449 31.9538 36.3342 31.1129C35.9236 30.2524 35.4933 29.3138 35.3956 29.0009C35.2196 28.512 35.2782 28.5511 35.8258 29.2356C36.8818 30.5653 38.3093 31.8364 39.2284 32.2667C39.7173 32.5013 40.1476 32.6578 40.1867 32.6187C40.2258 32.5796 39.8542 31.9733 39.3653 31.2889C38.5636 30.1547 35.6107 24.4053 35.5911 23.9751C35.5911 23.8969 35.8844 24.0338 36.2364 24.288C36.5689 24.5422 37.1947 24.9529 37.5858 25.1876L38.2898 25.6373L37.4293 24.112C36.96 23.2907 36.3929 22.0782 36.1778 21.4329C35.728 20.0249 34.8089 16.6222 34.8871 16.6222C34.9262 16.6222 35.6302 17.3067 36.4516 18.128L37.9378 19.6533L37.6444 18.7733C37.136 17.3262 36.2169 13.6107 35.8844 11.7529C35.728 10.7947 35.4542 9.62133 35.2978 9.17155C34.6329 7.29422 33.264 6.25777 31.4453 6.25777C30.1547 6.25777 29.4116 6.688 28.5316 7.92C27.8276 8.89777 27.104 9.38666 26.3609 9.38666C25.8329 9.38666 25.1093 8.93689 24.8356 8.42844C24.6791 8.096 24.7182 8.07644 25.5004 8.15466C26.3413 8.25244 27.1822 7.97866 27.1822 7.62666C27.1822 7.50933 27.0258 7.43111 26.8302 7.43111C26.4196 7.43111 25.6764 6.72711 25.872 6.512C25.9502 6.45333 26.1849 6.29689 26.4391 6.17955C27.0062 5.88622 27.0844 5.55377 26.6151 5.41689C26.4196 5.37777 26.0089 4.96711 25.7351 4.51733C25.4418 4.08711 25.1289 3.71555 25.0311 3.71555C24.9138 3.71555 24.8356 3.61777 24.8356 3.52C24.8356 3.40266 24.992 3.32444 25.1876 3.32444C25.4027 3.32444 25.7156 3.14844 25.9111 2.93333C26.3022 2.50311 26.2436 2.464 25.0116 2.26844C24.6204 2.19022 23.584 1.79911 22.704 1.36889C20.8658 0.488885 20.1031 0.391108 19.6729 0.99733C19.3991 1.408 19.3796 1.408 18.3431 1.07555C17.776 0.899552 17.2089 0.723552 17.0916 0.684441C16.9938 0.664885 16.6222 0.743108 16.2898 0.879997ZM32.4231 19.3013C32.3449 27.2213 32.3253 27.7298 31.9147 28.9422C30.8587 32.1493 28.1796 34.8284 25.0507 35.8062C23.2907 36.3538 20.7093 36.3538 18.9493 35.8062C15.8204 34.8284 13.0827 32.0907 12.1244 28.9618C11.7529 27.808 11.7333 27.1236 11.7333 19.3404V10.9511H22.1173H32.5013L32.4231 19.3013Z" fill="#004A98"/>
<path d="M14.6666 20.6701C14.7644 26.7715 14.784 27.1235 15.1946 28.023C15.7422 29.2159 16.7982 30.5457 17.0915 30.4479C17.2088 30.3893 17.2871 30.2719 17.2675 30.1546C17.248 30.0568 17.6977 29.4897 18.2648 28.9226C19.2426 27.9448 19.3404 27.7688 19.4577 26.7128C19.5555 25.9501 19.5164 25.1093 19.36 24.3661C18.9102 22.1955 18.9102 21.4328 19.3404 20.4355C19.5751 19.9075 19.7511 19.0275 19.7902 18.2648C19.8293 17.0133 20.0053 16.6613 20.2008 17.4044C20.3377 17.9128 20.8462 18.1084 21.2373 17.7759C21.4328 17.6195 21.5306 17.2479 21.4915 16.7395C21.4133 15.2337 21.4524 15.1164 22.0586 15.175C22.352 15.1946 22.704 15.2141 22.8604 15.2337C23.0755 15.2533 23.1146 15.4879 23.0168 16.3288C22.9191 17.3848 22.9191 17.4044 23.7795 18.2648C24.9333 19.4577 25.0897 19.9075 24.816 21.3546C24.64 22.2541 24.64 22.8213 24.816 23.8381C24.992 24.7768 24.992 25.3048 24.8551 25.6959C24.464 26.6933 24.5813 27.8666 25.1484 28.5315C25.4222 28.8639 25.7742 29.1377 25.9306 29.1377C26.0871 29.1377 26.3608 29.4506 26.5173 29.8221C26.6737 30.1937 26.8693 30.5066 26.9671 30.5066C27.2213 30.5066 28.2186 29.1964 28.7075 28.2577C29.3724 26.9084 29.5288 25.4026 29.5288 19.7119V14.2755H22.0586H14.5688L14.6666 20.6701Z" fill="#004A98"/>
</svg>
